<svg width="24" height="24" viewBox="0 0 24 24" fill="none" xmlns="http://www.w3.org/2000/svg">
<path d="M20.5704 11.8184C20.5704 16.5564 16.7296 20.3972 11.9916 20.3972C7.2537 20.3972 3.41284 16.5564 3.41284 11.8184C3.41284 7.0805 7.2537 3.23964 11.9916 3.23964C16.7296 3.23964 20.5704 7.0805 20.5704 11.8184Z" fill="#fff"/>
<path d="M6.14535 3.49383C5.50988 4.10167 5.62639 5.54851 5.76407 6.16279C7.64505 4.38349 10.5724 3.39851 11.4515 3.33496C11.0702 2.76305 10.3077 1.97769 9.25913 2.00049C8.01998 2.02742 6.87614 2.79482 6.14535 3.49383Z" fill="#fff"/>
<path d="M3.0564 16.652C3.56321 17.3707 5.01131 17.4702 5.63922 17.4252C4.15876 15.301 3.61912 12.2598 3.68673 11.3811C3.06456 11.6733 2.17474 12.3108 2.04168 13.3511C1.88442 14.5806 2.47357 15.8256 3.0564 16.652Z" fill="#fff"/>
<path d="M21.9817 10.8424C21.9585 11.7214 20.8086 12.6072 20.2611 12.918C20.3152 10.3293 19.078 7.49931 18.5344 6.80552C19.2142 6.70367 20.3082 6.74083 20.9958 7.53275C21.8084 8.46866 22.0085 9.83146 21.9817 10.8424Z" fill="#fff"/>
<path d="M10.4338 21.7062C9.59506 21.4421 9.05965 20.0929 8.91146 19.4811C11.3854 20.245 14.4466 19.8337 15.2631 19.5019C15.1741 20.1835 14.8375 21.2251 13.887 21.6684C12.7637 22.1923 11.3984 22.0099 10.4338 21.7062Z" fill="#fff"/>
</svg>
