<svg width="24" height="24" viewBox="0 0 24 24" fill="none" xmlns="http://www.w3.org/2000/svg">
<path d="M13.25 20.7179C11.8958 20.7179 10.6426 20.3839 9.49023 19.7158C8.33789 19.0477 7.42643 18.1395 6.75586 16.9914C6.08529 15.8433 5.75 14.5946 5.75 13.2454C5.75 11.8703 6.23828 10.6962 7.21484 9.72321C8.19141 8.75022 9.36979 8.26373 10.75 8.26373C11.1927 8.26373 11.7005 8.38697 12.2734 8.63346C12.8464 8.87995 13.3607 9.25293 13.8164 9.7524C14.2721 10.2519 14.5 10.7935 14.5 11.3773C14.5 12.1427 14.4284 12.6876 14.2852 13.0119C14.7148 12.8173 15.0664 12.5157 15.3398 12.107C15.6133 11.6984 15.75 11.2476 15.75 10.7546C15.75 9.37942 15.2617 8.20535 14.2852 7.23236C13.3086 6.25938 12.1302 5.77289 10.75 5.77289C9.61719 5.77289 8.57227 6.05181 7.61523 6.60965C6.6582 7.1675 5.89974 7.92318 5.33984 8.87671C4.77995 9.83024 4.5 10.8713 4.5 12C4.5 13.6216 4.74414 15.1006 5.23242 16.4368C5.7207 17.773 6.3099 18.7849 7 19.4725C5.1901 18.8758 3.9043 17.9741 3.14258 16.7676C2.38086 15.5611 2 13.9719 2 12C2 10.8194 2.23112 9.69077 2.69336 8.614C3.1556 7.53723 3.77734 6.60965 4.55859 5.83127C5.33984 5.05288 6.27083 4.43341 7.35156 3.97286C8.43229 3.51232 9.5651 3.28204 10.75 3.28204C12.1042 3.28204 13.3574 3.6161 14.5098 4.28422C15.6621 4.95234 16.5736 5.86045 17.2441 7.00858C17.9147 8.1567 18.25 9.40536 18.25 10.7546C18.25 12.1297 17.7617 13.3038 16.7852 14.2768C15.8086 15.2498 14.6302 15.7363 13.25 15.7363C12.8073 15.7363 12.2995 15.613 11.7266 15.3665C11.1536 15.12 10.6393 14.7471 10.1836 14.2476C9.72787 13.7481 9.5 13.2065 9.5 12.6227C9.5 11.8573 9.57162 11.3124 9.71484 10.9881C9.28516 11.1827 8.93359 11.4843 8.66016 11.893C8.38672 12.3016 8.25 12.7524 8.25 13.2454C8.25 14.6206 8.73828 15.7946 9.71484 16.7676C10.6914 17.7406 11.8698 18.2271 13.25 18.2271C14.3828 18.2271 15.4277 17.9482 16.3848 17.3903C17.3418 16.8325 18.1003 16.0768 18.6602 15.1233C19.2201 14.1698 19.5 13.1287 19.5 12C19.5 10.3913 19.2559 8.91563 18.7676 7.57291C18.2793 6.23019 17.6901 5.21504 17 4.52746C18.8099 5.12423 20.0957 6.02586 20.8574 7.23236C21.6191 8.43887 22 10.0281 22 12C22 13.1805 21.7689 14.3092 21.3066 15.386C20.8444 16.4628 20.2227 17.3903 19.4414 18.1687C18.6602 18.9471 17.7292 19.5666 16.6484 20.0271C15.5677 20.4877 14.4349 20.7179 13.25 20.7179Z" fill="#fff"/>
</svg>
