<svg width="24" height="24" viewBox="0 0 24 24" fill="none" xmlns="http://www.w3.org/2000/svg">
<path d="M4.22222 22H19.7778C21.0051 22 22 21.0051 22 19.7778V4.22222C22 2.99492 21.0051 2 19.7778 2H4.22222C2.99492 2 2 2.99492 2 4.22222V19.7778C2 21.0051 2.99492 22 4.22222 22ZM4.22222 22L16.4444 9.77778L22 15.3333M9.77778 8.11111C9.77778 9.03159 9.03159 9.77778 8.11111 9.77778C7.19064 9.77778 6.44444 9.03159 6.44444 8.11111C6.44444 7.19064 7.19064 6.44444 8.11111 6.44444C9.03159 6.44444 9.77778 7.19064 9.77778 8.11111Z" stroke="#ffffff" stroke-width="2" stroke-linecap="round" stroke-linejoin="round"/>
</svg>
