<svg width="24" height="24" viewBox="0 0 24 24" fill="none" xmlns="http://www.w3.org/2000/svg">
<path d="M15.2112 15.7572C19.8815 11.5696 23.5001 6.06801 21.3782 3.65496C20.7052 2.89002 19.7654 2.53532 18.7564 2.6443C17.9093 2.73786 17.0388 3.16043 16.1611 3.86984C14.7815 3.14809 13.2415 2.79575 11.6885 2.84651C10.1355 2.89727 8.6214 3.34944 7.29086 4.15978C6.25652 4.77819 5.35408 5.59784 4.63591 6.5712C3.91773 7.54457 3.39812 8.65225 3.10722 9.82999C2.65383 11.6441 2.76257 13.5551 3.41878 15.3048C2.33443 16.5417 1.32747 19.0853 2.58083 20.5103C3.10722 21.1077 3.86066 21.375 4.76683 21.375C7.523 21.375 11.6985 18.9085 15.2112 15.7572ZM18.9774 4.68722C19.3419 4.65226 19.6208 4.75302 19.854 5.01931C20.0892 5.28765 20.0261 5.99193 19.5974 7.00259C19.1369 6.29493 18.5831 5.65397 17.9511 5.09745C18.3899 4.82807 18.7411 4.71395 18.9774 4.68722ZM4.48785 17.3365C4.94059 17.9995 5.47731 18.5999 6.08434 19.1223C5.04072 19.4339 4.3392 19.4133 4.104 19.1439C3.88306 18.8941 4.10604 18.0448 4.48785 17.3365ZM21.0941 11.3023C19.8571 13.1499 18.1353 15.0766 16.2293 16.7854C14.2602 18.5527 12.0895 20.0837 10.0694 21.1056C10.6962 21.245 11.3357 21.318 11.9775 21.3236C13.6333 21.3218 15.2577 20.8662 16.6773 20.0055C18.1521 19.1239 19.3496 17.8386 20.1312 16.2984C20.9128 14.7582 21.2467 13.0261 21.0941 11.3023Z" fill="#fff"/>
</svg>
