<svg width="24" height="24" viewBox="0 0 24 24" fill="none" xmlns="http://www.w3.org/2000/svg">
<path d="M21.3536 9.12706L15.358 8.24066L12.6778 2.7133C12.6046 2.56196 12.4841 2.43945 12.3354 2.36499C11.9623 2.17762 11.5089 2.33376 11.3223 2.7133L8.64213 8.24066L2.64652 9.12706C2.48122 9.15108 2.33009 9.23035 2.21438 9.35046C2.07449 9.49672 1.99741 9.69349 2.00007 9.89753C2.00272 10.1016 2.0849 10.2962 2.22855 10.4386L6.56645 14.7409L5.5416 20.816C5.51757 20.9573 5.53294 21.1026 5.58598 21.2355C5.63901 21.3684 5.72759 21.4835 5.84166 21.5678C5.95573 21.6521 6.09074 21.7021 6.23137 21.7123C6.372 21.7225 6.51262 21.6924 6.63729 21.6255L12 18.7573L17.3628 21.6255C17.5092 21.7048 17.6792 21.7312 17.8422 21.7024C18.2531 21.6303 18.5293 21.2339 18.4585 20.816L17.4336 14.7409L21.7716 10.4386C21.8896 10.3209 21.9675 10.1672 21.9912 9.99904C22.0549 9.57866 21.7668 9.18952 21.3536 9.12706Z" fill="#fff"/>
</svg>
