<svg width="414" height="896" viewBox="0 0 414 896" fill="none" xmlns="http://www.w3.org/2000/svg">
<g style="mix-blend-mode:lighten" opacity="0.8" filter="url(#filter0_f)">
<path d="M-56.0781 729.308C-56.0781 725.469 -62.0284 725.469 -62.0284 729.308C-62.0284 733.147 -56.0781 733.147 -56.0781 729.308Z" fill="url(#paint0_linear)"/>
<path d="M64.9514 405.773C64.9514 401.935 59.001 401.935 59.001 405.773C59.001 409.612 64.9514 409.612 64.9514 405.773Z" fill="url(#paint1_linear)"/>
<path d="M-68.9307 410.332C-68.9307 406.493 -74.881 406.493 -74.881 410.332C-74.881 414.171 -68.9307 414.171 -68.9307 410.332Z" fill="url(#paint2_linear)"/>
<path d="M60.4291 602.03C60.4291 598.191 54.4788 598.191 54.4788 602.03C54.4788 605.868 60.4291 605.868 60.4291 602.03Z" fill="url(#paint3_linear)"/>
<path d="M-35.0139 579.957C-35.0139 576.118 -40.9643 576.118 -40.9643 579.957C-40.9643 583.916 -35.0139 583.916 -35.0139 579.957Z" fill="url(#paint4_linear)"/>
<path d="M79.2321 864.864C78.7561 864.864 78.2801 864.864 77.685 864.864C76.138 864.864 74.5909 866.184 74.7099 867.863C74.8289 869.542 76.019 870.862 77.685 870.862C78.1611 870.862 78.6371 870.862 79.2321 870.862C80.7792 870.862 82.3263 869.542 82.2073 867.863C82.0883 866.303 80.8982 864.864 79.2321 864.864Z" fill="url(#paint5_linear)"/>
<path d="M-67.1457 873.381C-67.6217 873.861 -68.0977 874.341 -68.6927 874.941C-69.7638 876.02 -69.8828 878.06 -68.6927 879.139C-67.5027 880.219 -65.7176 880.339 -64.5275 879.139C-64.0515 878.659 -63.5755 878.18 -62.9804 877.58C-61.9094 876.5 -61.7904 874.461 -62.9804 873.381C-64.1705 872.301 -65.9556 872.182 -67.1457 873.381Z" fill="url(#paint6_linear)"/>
<path d="M38.651 786.05C38.651 782.211 32.7006 782.211 32.7006 786.05C32.7006 789.888 38.651 789.888 38.651 786.05Z" fill="url(#paint7_linear)"/>
<path d="M-50.1277 266.379C-50.1277 262.54 -56.078 262.54 -56.078 266.379C-56.078 270.218 -50.1277 270.218 -50.1277 266.379Z" fill="url(#paint8_linear)"/>
<path d="M94.2269 183.006C94.2269 179.167 88.2766 179.167 88.2766 183.006C88.2766 186.845 94.2269 186.845 94.2269 183.006Z" fill="url(#paint9_linear)"/>
<path d="M134.808 254.263C134.808 250.424 128.858 250.424 128.858 254.263C128.858 258.102 134.808 258.102 134.808 254.263Z" fill="url(#paint10_linear)"/>
<path d="M261.074 372.425C261.074 368.586 255.123 368.586 255.123 372.425C255.123 376.263 261.074 376.263 261.074 372.425Z" fill="url(#paint11_linear)"/>
<path d="M119.813 499.703C119.813 495.864 113.863 495.864 113.863 499.703C113.863 503.542 119.813 503.542 119.813 499.703Z" fill="url(#paint12_linear)"/>
<path d="M273.093 513.378C273.093 509.54 267.143 509.54 267.143 513.378C267.143 517.217 273.093 517.217 273.093 513.378Z" fill="url(#paint13_linear)"/>
<path d="M243.104 658.771C243.104 654.932 237.153 654.932 237.153 658.771C237.153 662.61 243.104 662.61 243.104 658.771Z" fill="url(#paint14_linear)"/>
<path d="M227.99 728.468C227.99 724.63 222.04 724.63 222.04 728.468C222.04 732.307 227.99 732.307 227.99 728.468Z" fill="url(#paint15_linear)"/>
<path d="M291.182 795.167C291.182 791.328 285.232 791.328 285.232 795.167C285.232 799.005 291.182 799.005 291.182 795.167Z" fill="url(#paint16_linear)"/>
<path d="M265.596 881.539C265.596 877.7 259.646 877.7 259.646 881.539C259.646 885.377 265.596 885.377 265.596 881.539Z" fill="url(#paint17_linear)"/>
<path d="M400.906 870.982C400.906 867.143 394.956 867.143 394.956 870.982C394.956 874.821 400.906 874.821 400.906 870.982Z" fill="url(#paint18_linear)"/>
<path d="M370.798 661.77C370.798 657.931 364.847 657.931 364.847 661.77C364.847 665.729 370.798 665.729 370.798 661.77Z" fill="url(#paint19_linear)"/>
<path d="M444.463 433.005C444.463 429.166 438.512 429.166 438.512 433.005C438.512 436.843 444.463 436.843 444.463 433.005Z" fill="url(#paint20_linear)"/>
<path d="M337.714 555.725C337.714 551.886 331.763 551.886 331.763 555.725C331.763 559.563 337.714 559.563 337.714 555.725Z" fill="url(#paint21_linear)"/>
<path d="M401.858 327.559C402.334 328.039 402.81 328.519 403.405 329.118C404.476 330.198 406.5 330.318 407.571 329.118C408.642 327.919 408.761 326.119 407.571 324.92C407.095 324.44 406.618 323.96 406.023 323.36C404.952 322.281 402.929 322.161 401.858 323.36C400.787 324.56 400.668 326.359 401.858 327.559Z" fill="url(#paint22_linear)"/>
<path d="M354.256 229.911C354.256 226.072 348.305 226.072 348.305 229.911C348.305 233.87 354.256 233.87 354.256 229.911Z" fill="url(#paint23_linear)"/>
<path d="M237.035 186.005C237.035 182.166 231.084 182.166 231.084 186.005C231.084 189.844 237.035 189.844 237.035 186.005Z" fill="url(#paint24_linear)"/>
<path d="M443.034 63.2853C443.034 59.4466 437.084 59.4466 437.084 63.2853C437.084 67.1241 443.034 67.1241 443.034 63.2853Z" fill="url(#paint25_linear)"/>
<path d="M279.163 55.7274C279.163 51.8886 273.212 51.8886 273.212 55.7274C273.212 59.5661 279.163 59.5661 279.163 55.7274Z" fill="url(#paint26_linear)"/>
<path d="M62.6902 49.6095C62.6902 45.7708 56.7399 45.7708 56.7399 49.6095C56.7399 53.4483 62.6902 53.5682 62.6902 49.6095Z" fill="url(#paint27_linear)"/>
<path d="M-66.6696 58.7266C-66.6696 54.8879 -72.6199 54.8879 -72.6199 58.7266C-72.6199 62.5654 -66.6696 62.5654 -66.6696 58.7266Z" fill="url(#paint28_linear)"/>
<path d="M-57.6251 145.098C-57.6251 141.26 -63.5754 141.26 -63.5754 145.098C-63.5754 148.937 -57.6251 148.937 -57.6251 145.098Z" fill="url(#paint29_linear)"/>
<path d="M459.457 666.329C459.457 662.49 453.507 662.49 453.507 666.329C453.507 670.287 459.457 670.287 459.457 666.329Z" fill="url(#paint30_linear)"/>
<path d="M411.379 766.376C411.379 762.537 405.428 762.537 405.428 766.376C405.428 770.215 411.379 770.215 411.379 766.376Z" fill="url(#paint31_linear)"/>
<path d="M-17.044 872.422C-17.044 870.502 -20.0192 870.502 -20.0192 872.422C-20.0192 874.341 -17.044 874.341 -17.044 872.422Z" fill="url(#paint32_linear)"/>
<path d="M-74.167 799.725C-74.167 797.806 -77.1422 797.806 -77.1422 799.725C-77.1422 801.645 -74.167 801.645 -74.167 799.725Z" fill="url(#paint33_linear)"/>
<path d="M-62.1474 652.773C-62.1474 650.854 -65.1226 650.854 -65.1226 652.773C-65.1226 654.693 -62.1474 654.693 -62.1474 652.773Z" fill="url(#paint34_linear)"/>
<path d="M4.0201 720.911C4.0201 718.992 1.04494 718.992 1.04494 720.911C1.04494 722.83 4.0201 722.83 4.0201 720.911Z" fill="url(#paint35_linear)"/>
<path d="M-36.561 323.96C-36.561 322.041 -39.5362 322.041 -39.5362 323.96C-39.5362 325.88 -36.561 325.88 -36.561 323.96Z" fill="url(#paint36_linear)"/>
<path d="M-57.6252 490.586C-57.6252 488.667 -60.6004 488.667 -60.6004 490.586C-60.6004 492.505 -57.6252 492.505 -57.6252 490.586Z" fill="url(#paint37_linear)"/>
<path d="M-45.6055 411.772C-45.6055 409.852 -48.5806 409.852 -48.5806 411.772C-48.5806 413.691 -45.6055 413.691 -45.6055 411.772Z" fill="url(#paint38_linear)"/>
<path d="M-35.0139 254.263C-35.0139 252.344 -37.9891 252.344 -37.9891 254.263C-37.9891 256.182 -35.0139 256.182 -35.0139 254.263Z" fill="url(#paint39_linear)"/>
<path d="M100.296 237.588C100.296 235.669 97.3211 235.669 97.3211 237.588C97.3211 239.508 100.296 239.508 100.296 237.588Z" fill="url(#paint40_linear)"/>
<path d="M137.783 228.471C137.783 226.552 134.808 226.552 134.808 228.471C134.808 230.391 137.783 230.391 137.783 228.471Z" fill="url(#paint41_linear)"/>
<path d="M28.0593 207.238C28.0593 205.319 25.0842 205.319 25.0842 207.238C25.0842 209.158 28.0593 209.158 28.0593 207.238Z" fill="url(#paint42_linear)"/>
<path d="M46.1483 176.888C46.1483 174.969 43.1732 174.969 43.1732 176.888C43.1732 178.807 46.1483 178.807 46.1483 176.888Z" fill="url(#paint43_linear)"/>
<path d="M44.6013 72.4022C44.6013 70.4828 41.6261 70.4828 41.6261 72.4022C41.6261 74.3215 44.6013 74.3215 44.6013 72.4022Z" fill="url(#paint44_linear)"/>
<path d="M112.316 42.0522C111.84 42.0522 111.364 42.0522 110.769 42.0522C108.865 42.0522 108.865 45.0512 110.769 45.0512C111.245 45.0512 111.721 45.0512 112.316 45.0512C114.22 45.0512 114.22 42.0522 112.316 42.0522Z" fill="url(#paint45_linear)"/>
<path d="M-42.5114 58.7265C-42.5114 56.8072 -45.4865 56.8072 -45.4865 58.7265C-45.4865 60.6459 -42.5114 60.6459 -42.5114 58.7265Z" fill="url(#paint46_linear)"/>
<path d="M270.118 155.775C270.118 153.856 267.143 153.856 267.143 155.775C267.143 157.694 270.118 157.694 270.118 155.775Z" fill="url(#paint47_linear)"/>
<path d="M264.049 187.565C264.049 185.645 261.074 185.645 261.074 187.565C261.074 189.484 264.049 189.484 264.049 187.565Z" fill="url(#paint48_linear)"/>
<path d="M255.123 58.7265C255.123 56.8072 252.148 56.8072 252.148 58.7265C252.148 60.6459 255.123 60.6459 255.123 58.7265Z" fill="url(#paint49_linear)"/>
<path d="M327.241 249.705C327.241 247.785 324.266 247.785 324.266 249.705C324.266 251.624 327.241 251.624 327.241 249.705Z" fill="url(#paint50_linear)"/>
<path d="M346.758 264.82C346.758 262.9 343.783 262.9 343.783 264.82C343.783 266.739 346.758 266.739 346.758 264.82Z" fill="url(#paint51_linear)"/>
<path d="M256.552 404.214C256.552 402.295 253.576 402.295 253.576 404.214C253.576 406.133 256.552 406.133 256.552 404.214Z" fill="url(#paint52_linear)"/>
<path d="M280.591 372.424C280.591 370.505 277.616 370.505 277.616 372.424C277.616 374.344 280.591 374.344 280.591 372.424Z" fill="url(#paint53_linear)"/>
<path d="M235.606 548.167C236.082 548.167 236.558 548.167 237.153 548.167C239.058 548.167 239.058 545.168 237.153 545.168C236.677 545.168 236.201 545.168 235.606 545.168C233.702 545.168 233.583 548.167 235.606 548.167Z" fill="url(#paint54_linear)"/>
<path d="M244.532 504.261C244.532 502.342 241.557 502.342 241.557 504.261C241.557 506.181 244.532 506.181 244.532 504.261Z" fill="url(#paint55_linear)"/>
<path d="M86.7295 584.515C86.7295 582.596 83.7544 582.596 83.7544 584.515C83.7544 586.435 86.7295 586.435 86.7295 584.515Z" fill="url(#paint56_linear)"/>
<path d="M83.7544 749.701C83.7544 747.782 80.7792 747.782 80.7792 749.701C80.7792 751.621 83.7544 751.621 83.7544 749.701Z" fill="url(#paint57_linear)"/>
<path d="M46.1483 728.468C46.1483 726.549 43.1732 726.549 43.1732 728.468C43.1732 730.388 46.1483 730.388 46.1483 728.468Z" fill="url(#paint58_linear)"/>
<path d="M46.1483 863.304C46.1483 861.385 43.1732 861.385 43.1732 863.304C43.1732 865.344 46.1483 865.344 46.1483 863.304Z" fill="url(#paint59_linear)"/>
<path d="M282.138 764.817C282.138 762.897 279.163 762.897 279.163 764.817C279.163 766.736 282.138 766.856 282.138 764.817Z" fill="url(#paint60_linear)"/>
<path d="M295.705 854.307C295.705 852.388 292.729 852.388 292.729 854.307C292.729 856.227 295.705 856.227 295.705 854.307Z" fill="url(#paint61_linear)"/>
<path d="M379.842 873.981C379.842 872.062 376.867 872.062 376.867 873.981C376.867 875.9 379.842 875.9 379.842 873.981Z" fill="url(#paint62_linear)"/>
<path d="M427.921 834.514C427.921 832.594 424.945 832.594 424.945 834.514C424.945 836.553 427.921 836.553 427.921 834.514Z" fill="url(#paint63_linear)"/>
<path d="M470.049 889.096C470.049 887.177 467.074 887.177 467.074 889.096C467.074 891.015 470.049 891.015 470.049 889.096Z" fill="url(#paint64_linear)"/>
<path d="M393.409 714.913C393.409 712.993 390.434 712.993 390.434 714.913C390.434 716.832 393.409 716.832 393.409 714.913Z" fill="url(#paint65_linear)"/>
<path d="M367.822 776.933C367.822 775.013 364.847 775.013 364.847 776.933C364.847 778.972 367.822 778.972 367.822 776.933Z" fill="url(#paint66_linear)"/>
<path d="M465.527 625.422C465.527 623.503 462.551 623.503 462.551 625.422C462.551 627.341 465.527 627.341 465.527 625.422Z" fill="url(#paint67_linear)"/>
<path d="M354.256 528.494C354.256 526.574 351.281 526.574 351.281 528.494C351.281 530.413 354.256 530.413 354.256 528.494Z" fill="url(#paint68_linear)"/>
<path d="M453.507 470.912C453.507 468.993 450.532 468.993 450.532 470.912C450.532 472.832 453.507 472.832 453.507 470.912Z" fill="url(#paint69_linear)"/>
<path d="M403.881 433.005C403.881 431.085 400.906 431.085 400.906 433.005C400.906 434.924 403.881 434.924 403.881 433.005Z" fill="url(#paint70_linear)"/>
<path d="M427.921 310.285C427.921 308.365 424.945 308.365 424.945 310.285C424.945 312.204 427.921 312.204 427.921 310.285Z" fill="url(#paint71_linear)"/>
<path d="M255.123 279.935C255.123 278.015 252.148 278.015 252.148 279.935C252.148 281.854 255.123 281.854 255.123 279.935Z" fill="url(#paint72_linear)"/>
<path d="M334.739 319.402C334.739 318.922 334.739 318.442 334.739 317.842C334.739 315.923 331.763 315.923 331.763 317.842C331.763 318.322 331.763 318.802 331.763 319.402C331.763 321.321 334.739 321.321 334.739 319.402Z" fill="url(#paint73_linear)"/>
<path d="M348.305 143.539C348.305 141.62 345.33 141.62 345.33 143.539C345.33 145.578 348.305 145.578 348.305 143.539Z" fill="url(#paint74_linear)"/>
<path d="M453.507 223.913C453.507 221.993 450.532 221.993 450.532 223.913C450.532 225.832 453.507 225.832 453.507 223.913Z" fill="url(#paint75_linear)"/>
<path d="M467.074 126.984C467.074 125.065 464.099 125.065 464.099 126.984C464.099 128.904 467.074 128.904 467.074 126.984Z" fill="url(#paint76_linear)"/>
<path d="M429.468 81.5191C429.468 79.5998 426.493 79.5998 426.493 81.5191C426.493 83.4385 429.468 83.4385 429.468 81.5191Z" fill="url(#paint77_linear)"/>
<path d="M402.453 55.7275C402.453 53.8081 399.478 53.8081 399.478 55.7275C399.478 57.6468 402.453 57.6468 402.453 55.7275Z" fill="url(#paint78_linear)"/>
<path d="M10.0894 393.657C10.0894 391.738 7.11427 391.738 7.11427 393.657C7.11427 395.577 10.0894 395.577 10.0894 393.657Z" fill="url(#paint79_linear)"/>
<path d="M-78.6893 208.798C-78.6893 206.878 -81.6644 206.878 -81.6644 208.798C-81.6644 210.717 -78.6893 210.717 -78.6893 208.798Z" fill="url(#paint80_linear)"/>
<path d="M8.54236 286.053C8.54236 284.133 5.5672 284.133 5.5672 286.053C5.5672 287.972 8.54236 287.972 8.54236 286.053Z" fill="url(#paint81_linear)"/>
<path d="M5.56716 651.214C5.56716 649.294 2.592 649.294 2.592 651.214C2.592 653.133 5.56716 653.133 5.56716 651.214Z" fill="url(#paint82_linear)"/>
<path d="M313.675 613.306C313.675 611.387 310.699 611.387 310.699 613.306C310.699 615.225 313.675 615.225 313.675 613.306Z" fill="url(#paint83_linear)"/>
<path d="M273.093 660.331C273.093 658.411 270.118 658.411 270.118 660.331C270.118 662.25 273.093 662.25 273.093 660.331Z" fill="url(#paint84_linear)"/>
</g>
<path d="M61.8876 515.394C98.8149 478.152 98.8149 417.771 61.8877 380.529C24.9604 343.287 -34.9105 343.287 -71.8377 380.529C-108.765 417.771 -108.765 478.152 -71.8377 515.394C-34.9105 552.636 24.9604 552.636 61.8876 515.394Z" stroke="url(#paint85_linear)" stroke-width="1.72165" stroke-miterlimit="10"/>
<path d="M-4.97223 582.418C68.6376 582.418 128.31 522.237 128.31 448C128.31 373.763 68.6376 313.582 -4.97223 313.582C-78.582 313.582 -138.255 373.763 -138.255 448C-138.255 522.237 -78.582 582.418 -4.97223 582.418Z" stroke="url(#paint86_linear)" stroke-width="1.72165" stroke-miterlimit="10"/>
<path d="M124.325 578.363C195.736 506.344 195.736 389.578 124.325 317.559C52.9145 245.54 -62.8648 245.54 -134.275 317.559C-205.686 389.578 -205.686 506.344 -134.275 578.363C-62.8648 650.382 52.9145 650.382 124.325 578.363Z" stroke="url(#paint87_linear)" stroke-width="1.72165" stroke-miterlimit="10"/>
<path d="M157.929 612.254C247.899 521.518 247.899 374.405 157.929 283.669C67.9597 192.932 -77.9099 192.932 -167.879 283.669C-257.849 374.405 -257.849 521.518 -167.879 612.254C-77.9098 702.99 67.9597 702.99 157.929 612.254Z" stroke="url(#paint88_linear)" stroke-width="1.72165" stroke-miterlimit="10"/>
<path d="M-4.97241 752.241C161.635 752.241 296.697 616.027 296.697 448C296.697 279.973 161.635 143.759 -4.97241 143.759C-171.58 143.759 -306.642 279.973 -306.642 448C-306.642 616.027 -171.58 752.241 -4.97241 752.241Z" stroke="url(#paint89_linear)" stroke-width="1.72165" stroke-miterlimit="10"/>
<path d="M-4.97226 860.031C220.664 860.031 403.578 675.559 403.578 448C403.578 220.441 220.664 35.9684 -4.97226 35.9684C-230.608 35.9684 -413.522 220.441 -413.522 448C-413.522 675.559 -230.608 860.031 -4.97226 860.031Z" stroke="url(#paint90_linear)" stroke-width="1.72165" stroke-miterlimit="10"/>
<path d="M-4.9722 949.183C269.485 949.183 491.976 724.796 491.976 448C491.976 171.204 269.485 -53.1835 -4.9722 -53.1835C-279.429 -53.1835 -501.921 171.204 -501.921 448C-501.921 724.796 -279.429 949.183 -4.9722 949.183Z" stroke="url(#paint91_linear)" stroke-width="1.72165" stroke-miterlimit="10"/>
<path d="M-4.97217 1007.96C301.672 1007.96 550.257 757.258 550.257 448C550.257 138.742 301.672 -111.961 -4.97217 -111.961C-311.617 -111.961 -560.201 138.742 -560.201 448C-560.201 757.258 -311.617 1007.96 -4.97217 1007.96Z" stroke="url(#paint92_linear)" stroke-width="1.72165" stroke-miterlimit="10"/>
<path d="M-5.07001 1048C323.501 1048 589.86 779.371 589.86 448C589.86 116.629 323.501 -152 -5.07001 -152C-333.641 -152 -600 116.629 -600 448C-600 779.371 -333.641 1048 -5.07001 1048Z" stroke="url(#paint93_linear)" stroke-width="1.72165" stroke-miterlimit="10"/>
<path d="M171.646 505.075C181.652 505.075 189.764 496.894 189.764 486.802C189.764 476.711 181.652 468.53 171.646 468.53C161.639 468.53 153.527 476.711 153.527 486.802C153.527 496.894 161.639 505.075 171.646 505.075Z" fill="url(#paint94_linear)"/>
<g style="mix-blend-mode:multiply">
<g style="mix-blend-mode:multiply">
<path d="M164.99 486.314C165.013 486.337 165.035 486.358 165.058 486.379C165.395 486.621 165.774 486.741 166.158 486.726C166.401 486.78 166.651 486.724 166.867 486.566C166.993 486.405 167.082 486.2 167.124 485.976C167.166 485.752 167.159 485.516 167.105 485.297C166.99 484.858 166.921 484.402 166.898 483.939C167.005 483.238 167.29 482.604 167.705 482.142C168.073 481.656 168.306 481.022 168.368 480.342C168.39 479.779 167.996 479.118 168.134 478.59C168.216 478.274 168.513 478.13 168.684 477.873C169.032 477.349 168.734 476.513 168.255 476.174C167.744 475.9 167.197 475.755 166.644 475.748C166.429 475.751 166.217 475.69 166.023 475.57C165.828 475.45 165.657 475.275 165.521 475.057C165.463 474.869 165.393 474.688 165.31 474.516C165.024 474.077 164.433 474.321 164.093 474.698C163.015 475.893 161.395 476.385 160.398 474.647C160.26 474.407 160.135 474.122 159.924 474.014C159.615 473.857 159.288 474.145 159.027 474.418C157.548 475.968 156.07 476.608 155.58 479.317C155.386 480.354 155.402 481.44 155.627 482.466C155.799 483.037 155.938 483.625 156.043 484.223C156.109 484.809 156.035 485.419 156.141 485.995C156.248 486.571 156.641 487.132 157.072 487.001C157.685 486.812 157.826 485.657 158.348 485.253C158.761 484.932 159.905 484.684 160.207 485.334C160.308 485.693 160.331 486.081 160.276 486.457C160.276 486.8 160.344 487.136 160.473 487.435C160.601 487.733 160.787 487.982 161.011 488.159C161.168 488.278 161.356 488.373 161.437 488.59C161.47 488.719 161.479 488.857 161.463 488.991C161.448 489.125 161.408 489.253 161.348 489.363C160.988 490.21 160.291 490.499 159.924 491.283C159.329 492.552 159.807 494.26 160.519 495.421C161.231 496.582 162.17 497.524 162.657 498.876C162.842 499.57 163.068 500.243 163.333 500.891C163.469 501.207 163.685 501.45 163.943 501.578C164.201 501.706 164.486 501.71 164.746 501.59C165.416 501.123 165.267 499.819 165.328 498.81C165.464 496.621 167.031 494.928 167.097 492.735C167.136 492.312 167.071 491.883 166.91 491.512C166.749 491.142 166.502 490.849 166.204 490.678C165.907 490.571 165.53 490.607 165.375 490.253C165.277 490.033 165.319 489.752 165.27 489.504C165.129 488.796 163.81 488.338 163.315 488.259C163.073 488.22 162.794 488.181 162.662 487.904C162.588 487.739 162.584 487.523 162.5 487.364C162.346 487.071 161.985 487.085 161.841 486.784C161.783 486.636 161.759 486.468 161.772 486.302C161.784 485.445 162.201 484.673 162.896 485.033C163.111 485.184 163.339 485.299 163.576 485.377C163.744 485.406 163.917 485.362 164.084 485.407C164.46 485.507 164.684 486.004 164.99 486.314Z" fill="#FFD885"/>
</g>
<g style="mix-blend-mode:multiply">
<path d="M180.38 473.843C179.946 473.734 179.501 473.713 179.062 473.779C178.811 473.84 178.558 473.873 178.303 473.877C178.067 473.843 177.832 473.789 177.601 473.716C176.386 473.437 175.977 474.212 175.141 474.959C174.375 475.643 173.406 475.178 172.591 475.696C172.245 475.911 171.97 476.281 171.815 476.74C171.623 477.371 171.909 477.854 171.725 478.437C171.591 478.731 171.503 479.056 171.463 479.394C171.481 479.538 171.481 479.684 171.463 479.827C171.421 479.956 171.351 480.066 171.26 480.141C170.781 480.62 170.14 481.075 170.124 481.865C170.117 482.206 170.239 482.53 170.256 482.87C170.282 483.439 170.017 484.042 170.207 484.555C170.286 484.724 170.394 484.865 170.523 484.967C170.652 485.069 170.797 485.128 170.947 485.141C171.478 485.19 172.011 485.094 172.513 484.859C172.971 484.689 173.495 484.441 173.643 483.847C173.779 483.302 173.54 482.633 173.791 482.163C174.128 481.536 175.515 481.233 175.474 482.409C175.466 482.649 175.379 482.897 175.448 483.12C175.507 483.255 175.586 483.375 175.679 483.471C175.824 483.674 175.916 483.933 175.94 484.209C175.965 484.486 175.921 484.765 175.816 485.006C175.137 486.481 173.448 486.617 172.884 488.366C172.166 490.589 172.674 495.054 174.363 496.429C174.459 496.492 174.545 496.58 174.615 496.688C174.694 496.888 174.712 497.12 174.666 497.338C174.561 498.249 174.457 499.159 174.352 500.065C174.302 500.501 174.282 501.035 174.56 501.283C174.687 501.36 174.826 501.397 174.966 501.39C175.106 501.383 175.243 501.333 175.365 501.244C176.753 500.629 177.996 499.55 178.969 498.112C180.002 496.636 180.071 495.41 180.707 493.703C180.937 493.087 181.405 492.662 181.617 492.035C181.787 491.349 181.796 490.611 181.644 489.917L181.401 488.187C181.378 487.719 181.223 487.28 180.966 486.955C180.708 486.709 180.313 486.671 180.178 486.294C180.124 486.145 180.125 485.97 180.067 485.825C179.967 485.572 179.729 485.487 179.535 485.36C179.101 485.078 179.224 484.522 179.358 484.044C179.436 483.718 179.586 483.431 179.789 483.217C179.992 483.004 180.239 482.874 180.498 482.844C181.407 482.837 181.852 484.309 182.631 484.925C183 485.177 183.401 485.334 183.814 485.389C185.395 485.732 187.425 486.315 188.887 485.015C189.092 484.804 189.237 484.509 189.3 484.177C189.363 483.844 189.34 483.494 189.234 483.181C188.78 481.447 187.408 480.513 186.774 478.925C186.425 478.054 186.441 477.593 185.807 477.031C185.013 476.417 184.194 475.863 183.352 475.371C182.423 474.675 181.422 474.16 180.38 473.843Z" fill="#FFD885"/>
</g>
</g>
<g style="mix-blend-mode:multiply" opacity="0.2">
<path d="M174.087 503.222C170.416 503.226 166.83 502.104 163.806 500.004C160.782 497.904 158.462 494.927 157.155 491.467C155.848 488.007 155.616 484.228 156.488 480.631C157.36 477.034 159.297 473.79 162.04 471.329C159.904 472.665 158.067 474.434 156.645 476.525C155.224 478.616 154.25 480.982 153.786 483.474C153.321 485.965 153.376 488.526 153.946 490.995C154.517 493.464 155.591 495.785 157.099 497.813C158.608 499.84 160.519 501.528 162.711 502.77C164.902 504.012 167.325 504.78 169.827 505.025C172.329 505.27 174.854 504.988 177.241 504.195C179.628 503.403 181.826 502.118 183.694 500.422C180.818 502.252 177.487 503.223 174.087 503.222Z" fill="#222226"/>
</g>
<g style="mix-blend-mode:overlay" opacity="0.2">
<path d="M171.648 468.53C169.841 468.529 168.045 468.801 166.318 469.336C164.381 470.679 162.748 472.419 161.526 474.443C160.304 476.468 159.521 478.73 159.229 481.082C158.936 483.433 159.14 485.821 159.828 488.087C160.515 490.353 161.671 492.447 163.219 494.23C164.766 496.013 166.671 497.446 168.807 498.434C170.943 499.422 173.262 499.943 175.612 499.962C177.962 499.981 180.289 499.498 182.44 498.545C184.592 497.592 186.519 496.191 188.095 494.433C189.371 491.651 189.932 488.589 189.725 485.531C189.518 482.473 188.55 479.516 186.911 476.935C185.272 474.354 183.014 472.23 180.347 470.761C177.679 469.292 174.687 468.525 171.648 468.53Z" fill="white"/>
</g>
<path d="M160.733 466.748C160.733 465.973 160.506 465.215 160.078 464.571C159.651 463.926 159.044 463.424 158.334 463.127C157.624 462.831 156.843 462.753 156.089 462.904C155.335 463.056 154.643 463.429 154.099 463.977C153.556 464.525 153.186 465.223 153.036 465.984C152.886 466.744 152.963 467.532 153.257 468.248C153.551 468.964 154.049 469.577 154.688 470.007C155.327 470.438 156.079 470.668 156.847 470.668C157.878 470.668 158.866 470.255 159.595 469.52C160.324 468.785 160.733 467.788 160.733 466.748Z" fill="#D6F9FF"/>
<path d="M160.733 466.748C160.733 465.973 160.506 465.215 160.078 464.571C159.651 463.926 159.044 463.424 158.334 463.127C157.624 462.831 156.843 462.753 156.089 462.904C155.335 463.056 154.643 463.429 154.099 463.977C153.556 464.525 153.186 465.223 153.036 465.984C152.886 466.744 152.963 467.532 153.257 468.248C153.551 468.964 154.049 469.577 154.688 470.007C155.327 470.438 156.079 470.668 156.847 470.668C157.878 470.668 158.866 470.255 159.595 469.52C160.324 468.785 160.733 467.788 160.733 466.748Z" fill="url(#paint95_linear)"/>
<g style="mix-blend-mode:overlay" opacity="0.59">
<path d="M156.844 462.829C156.077 462.83 155.327 463.06 154.689 463.49C154.052 463.921 153.555 464.532 153.262 465.247C152.969 465.962 152.892 466.749 153.042 467.508C153.192 468.267 153.562 468.964 154.104 469.511C154.647 470.058 155.338 470.431 156.09 470.582C156.843 470.733 157.623 470.656 158.332 470.36C159.041 470.065 159.647 469.564 160.074 468.921C160.501 468.278 160.729 467.522 160.73 466.748C160.734 466.232 160.636 465.721 160.442 465.244C160.248 464.767 159.961 464.333 159.6 463.969C159.238 463.604 158.808 463.315 158.335 463.12C157.862 462.924 157.355 462.825 156.844 462.829Z" fill="white"/>
</g>
<g style="mix-blend-mode:multiply" opacity="0.2">
<path d="M157.3 470.315C156.512 470.316 155.743 470.074 155.094 469.623C154.445 469.172 153.948 468.532 153.668 467.789C153.389 467.046 153.34 466.235 153.528 465.464C153.717 464.692 154.134 463.996 154.724 463.469C154.276 463.764 153.894 464.148 153.601 464.598C153.307 465.048 153.109 465.554 153.019 466.085C152.928 466.616 152.947 467.16 153.074 467.683C153.202 468.206 153.435 468.697 153.759 469.125C154.083 469.553 154.491 469.909 154.957 470.171C155.424 470.433 155.939 470.595 156.471 470.647C157.002 470.699 157.539 470.64 158.047 470.474C158.555 470.307 159.023 470.037 159.422 469.679C158.792 470.095 158.054 470.316 157.3 470.315Z" fill="#222226"/>
</g>
<path d="M114.199 258.476C120.647 256.939 124.638 250.421 123.114 243.919C121.59 237.416 115.127 233.39 108.679 234.927C102.231 236.465 98.2399 242.982 99.7641 249.485C101.288 255.988 107.751 260.013 114.199 258.476Z" fill="url(#paint96_linear)"/>
<g style="mix-blend-mode:multiply" opacity="0.5">
<g style="mix-blend-mode:multiply" opacity="0.5">
<g style="mix-blend-mode:multiply" opacity="0.5">
<path d="M105.863 239.222C105.756 239.763 105.811 240.493 106.267 240.656C106.396 240.683 106.528 240.679 106.656 240.644C106.784 240.608 106.903 240.542 107.007 240.449C107.601 240.021 108.077 239.397 108.677 238.982C109.276 238.567 110.103 238.407 110.637 238.929C111.23 239.51 111.162 240.611 110.844 241.433C110.539 242.025 110.308 242.665 110.159 243.333C110.125 243.614 110.144 243.9 110.215 244.171C110.285 244.442 110.406 244.692 110.568 244.903C110.733 245.111 110.941 245.267 111.172 245.357C111.403 245.447 111.649 245.468 111.889 245.417C112.247 245.306 112.576 245.095 112.85 244.804C113.409 244.273 113.907 243.659 114.331 242.978C115.102 241.737 115.759 240.157 117.035 239.78C117.449 239.672 117.88 239.698 118.282 239.856C118.683 240.015 119.04 240.299 119.312 240.677C119.576 241.063 119.758 241.516 119.841 242C119.925 242.484 119.907 242.984 119.791 243.459C119.729 243.767 119.595 244.049 119.403 244.273C119.174 244.483 118.904 244.627 118.617 244.69C117.538 244.916 116.481 245.266 115.46 245.733C115.27 245.816 115.097 245.945 114.952 246.112C114.808 246.279 114.696 246.48 114.623 246.701C114.572 247.154 114.664 247.614 114.881 247.995C115.037 248.432 115.292 248.812 115.618 249.095C116.272 249.564 117.116 249.185 117.807 248.801L121.637 246.682C121.9 246.57 122.131 246.373 122.301 246.114C122.406 245.875 122.461 245.609 122.458 245.34C122.549 244.232 122.498 243.114 122.309 242.023C122.115 240.926 121.625 239.929 120.911 239.179C120.061 238.431 119.043 237.986 117.981 237.9C116.933 237.751 115.864 237.765 114.822 237.551C114.432 237.495 114.056 237.339 113.724 237.093C113.456 236.832 113.211 236.54 112.994 236.221C110.73 233.39 106.504 235.973 105.863 239.222Z" fill="#D16111"/>
</g>
<g style="mix-blend-mode:multiply" opacity="0.5">
<path d="M115.272 243.348C115.296 243.485 115.357 243.609 115.446 243.702C115.534 243.796 115.646 243.854 115.765 243.868C115.85 243.887 115.937 243.888 116.022 243.873C116.574 243.782 117.079 243.462 117.443 242.971C117.562 242.78 117.625 242.55 117.625 242.315C117.625 242.079 117.562 241.849 117.443 241.658C117.371 241.547 117.267 241.469 117.15 241.438C117.034 241.432 116.919 241.463 116.817 241.528C116.715 241.593 116.631 241.689 116.573 241.806C116.459 242.042 116.318 242.257 116.152 242.446C115.983 242.567 115.803 242.665 115.615 242.737C115.507 242.779 115.414 242.862 115.352 242.973C115.29 243.084 115.262 243.216 115.272 243.348Z" fill="#D16111"/>
</g>
<g style="mix-blend-mode:multiply" opacity="0.5">
<path d="M107.063 242.694C106.863 243.12 106.786 243.609 106.844 244.09C106.886 244.322 106.979 244.539 107.015 244.772C107.067 245.115 107.009 245.528 107.232 245.76C107.306 245.83 107.396 245.874 107.49 245.889C107.585 245.904 107.682 245.888 107.769 245.843C107.944 245.75 108.091 245.6 108.193 245.411C108.42 245.025 108.531 244.562 108.508 244.095C108.445 243.744 108.436 243.383 108.48 243.029C108.623 242.671 108.84 242.361 109.112 242.126C109.586 241.588 109.922 240.057 108.851 240.358C108.073 240.581 107.374 241.921 107.063 242.694Z" fill="#D16111"/>
</g>
<g style="mix-blend-mode:multiply" opacity="0.5">
<path d="M105.514 242.386C105.754 242.883 105.855 243.455 105.805 244.022C105.711 244.708 105.287 245.382 105.487 246.037C105.583 246.352 105.811 246.591 105.918 246.9C106.151 247.564 105.778 248.283 105.476 248.908C104.948 249.834 104.757 250.967 104.945 252.057C105.208 253.111 106.274 253.927 107.125 253.452C107.932 253 108.107 251.7 107.824 250.71C107.511 249.615 106.849 248.062 108.167 247.435C109.082 247 110.056 247.714 110.485 248.631C110.617 249.03 110.85 249.373 111.153 249.614C111.826 249.998 112.598 249.131 113.332 249.302C114.563 249.59 114.621 251.774 114.817 252.867C114.881 253.159 114.912 253.461 114.909 253.763C114.851 254.928 113.848 255.681 112.931 256.159C111.931 256.678 110.896 257.1 109.836 257.422C108.849 257.862 107.777 257.976 106.738 257.754C105.699 257.531 104.732 256.98 103.944 256.161C103.046 255.378 102.157 254.437 101.843 253.181C101.629 252.102 101.71 250.972 102.075 249.949C102.303 249.35 102.461 248.719 102.545 248.071C102.548 247.325 102.421 246.585 102.17 245.897C101.72 244.395 101.621 242.87 102.678 241.658C103.646 240.549 104.955 241.084 105.514 242.386Z" fill="#D16111"/>
</g>
<g style="mix-blend-mode:multiply" opacity="0.5">
<path d="M113.354 247.318C113.386 246.61 112.148 246.41 111.76 246.674C110.933 247.236 111.347 248.265 112.195 248.254C112.457 248.262 112.715 248.19 112.944 248.045C113.058 247.972 113.155 247.867 113.226 247.74C113.297 247.614 113.341 247.469 113.354 247.318Z" fill="#D16111"/>
</g>
</g>
</g>
<g style="mix-blend-mode:multiply" opacity="0.2">
<path d="M113.064 257.211C110.739 257.214 108.463 256.545 106.509 255.284C104.555 254.024 103.006 252.225 102.048 250.105C101.09 247.985 100.764 245.633 101.109 243.331C101.455 241.03 102.456 238.878 103.994 237.132C102.668 238.171 101.574 239.476 100.782 240.963C99.9892 242.45 99.516 244.086 99.3924 245.767C99.2687 247.447 99.4973 249.135 100.064 250.722C100.63 252.31 101.521 253.761 102.681 254.983C103.84 256.205 105.242 257.171 106.796 257.819C108.35 258.467 110.022 258.783 111.705 258.746C113.389 258.709 115.046 258.321 116.57 257.605C118.094 256.89 119.453 255.864 120.558 254.592C118.428 256.288 115.786 257.212 113.064 257.211Z" fill="#222226"/>
</g>
<g style="mix-blend-mode:overlay" opacity="0.39">
<path d="M111.389 234.52C109.491 234.52 107.62 234.981 105.933 235.864C104.155 238.019 103.164 240.734 103.129 243.547C103.094 246.36 104.016 249.099 105.739 251.3C107.462 253.501 109.88 255.028 112.584 255.623C115.287 256.217 118.109 255.843 120.572 254.562C122.042 252.784 122.981 250.616 123.281 248.313C123.58 246.011 123.226 243.669 122.262 241.563C121.297 239.458 119.761 237.676 117.835 236.428C115.909 235.181 113.673 234.518 111.389 234.52Z" fill="white"/>
</g>
<path d="M82.5455 564.084C87.2935 559.296 87.2935 551.532 82.5455 546.744C77.7976 541.955 70.0996 541.955 65.3516 546.744C60.6037 551.532 60.6037 559.296 65.3516 564.084C70.0996 568.872 77.7976 568.872 82.5455 564.084Z" fill="#FFD0A6"/>
<path d="M82.5455 564.084C87.2935 559.296 87.2935 551.532 82.5455 546.744C77.7976 541.955 70.0996 541.955 65.3516 546.744C60.6037 551.532 60.6037 559.296 65.3516 564.084C70.0996 568.872 77.7976 568.872 82.5455 564.084Z" fill="url(#paint97_linear)"/>
<g style="mix-blend-mode:multiply" opacity="0.5">
<g style="mix-blend-mode:multiply" opacity="0.5">
<path d="M66.7723 547.9C67.3396 547.665 68.0849 547.78 68.4051 548.328C68.6282 548.71 68.5951 549.21 68.4364 549.627C68.253 550.036 68.028 550.42 67.7661 550.769C67.2548 551.543 66.8328 552.423 66.7882 553.367C66.7436 554.31 67.1506 555.321 67.9451 555.749C68.2132 555.908 68.5225 555.951 68.8162 555.87C69.0346 555.78 69.2333 555.636 69.3986 555.45C70.4458 554.406 71.3555 553.193 72.5347 552.322C73.714 551.451 75.2856 550.964 76.6 551.581C76.7455 551.641 76.8787 551.735 76.9912 551.856C77.1999 552.105 77.2215 552.471 77.1968 552.803C77.1018 553.919 76.6327 554.949 75.888 555.677C75.1874 556.369 73.919 557.295 74.7389 558.445C74.9184 558.677 75.1534 558.844 75.4148 558.924C75.6763 559.005 75.9527 558.997 76.2099 558.899C76.4963 558.787 76.7393 558.568 77.0323 558.475C78.3574 558.051 78.7576 559.913 78.6371 560.898C78.47 562.267 77.7479 563.524 76.7983 564.448C75.6769 565.537 74.2481 566.213 72.7897 566.673C72.0289 566.913 71.0221 567.004 70.6211 566.279C70.3365 565.765 70.5312 565.115 70.7333 564.558C70.9648 563.918 71.1963 563.277 71.4277 562.636C71.702 561.876 71.9486 560.931 71.4373 560.325C71.0371 559.849 70.3353 559.824 69.7547 559.991C69.174 560.158 68.6345 560.478 68.0407 560.578C65.8386 560.947 63.4528 558.719 64.4259 556.283C64.5344 556.013 64.7068 555.758 64.7153 555.464C64.7436 554.536 63.3884 553.798 63.21 552.793C63.0212 551.731 63.6049 550.685 64.2951 549.89C64.9607 549.125 65.8436 548.283 66.7723 547.9Z" fill="#FFD0A6"/>
</g>
<g style="mix-blend-mode:multiply" opacity="0.5">
<path d="M77.3926 543.828C75.3579 543.841 73.6177 545.005 71.6485 545.11C71.2644 545.159 70.8916 545.29 70.5494 545.495C70.3307 545.592 70.1264 545.728 69.9441 545.896C69.8536 545.982 69.7815 546.09 69.7334 546.213C69.6853 546.335 69.6625 546.469 69.6668 546.603C69.6891 546.856 69.8362 547.067 69.9393 547.294C70.447 548.41 69.677 549.625 69.4462 550.701C69.3994 550.876 69.3891 551.061 69.4162 551.242C69.5097 551.706 70.0166 551.93 70.4212 551.814C70.8258 551.699 71.1416 551.347 71.4248 550.996C72.2809 549.937 73.0448 548.747 74.0956 547.949C75.1464 547.15 76.6059 546.831 77.6501 547.64C78.6027 548.378 78.9348 549.836 78.8485 551.149C78.7622 552.461 78.3409 553.71 78.1016 554.997C78.0233 555.418 77.975 555.898 78.2017 556.242C78.6165 556.871 79.4738 556.516 80.1598 556.575C80.5689 556.624 80.9493 556.838 81.233 557.178C81.5167 557.519 81.6853 557.964 81.7086 558.434C81.7182 558.874 81.6002 559.345 81.772 559.739C82.0301 560.331 82.7897 560.365 83.3008 560.058C84.2498 559.486 84.6572 558.206 84.9847 557.038C85.2307 556.161 85.4764 555.285 85.722 554.409C85.892 553.803 86.0638 553.17 85.9739 552.543C85.8823 551.903 85.5314 551.355 85.1643 550.862C84.1967 549.563 83.0499 548.455 81.7694 547.579C81.0055 547.057 80.1516 546.572 79.7214 545.681C79.5326 545.289 79.4356 544.835 79.183 544.493C78.7642 543.927 78.0414 543.824 77.3926 543.828Z" fill="#FFD0A6"/>
</g>
<g style="mix-blend-mode:multiply" opacity="0.5">
<path d="M77.4439 548.461C77.2265 548.01 76.8617 547.65 76.4054 547.757C75.9629 547.861 75.8657 548.296 75.6823 548.775C75.37 549.589 74.7908 549.369 74.3452 549.914C74.2915 549.974 74.2542 550.052 74.2386 550.139C74.2229 550.226 74.2297 550.317 74.2579 550.399C74.3392 550.584 74.5514 550.617 74.7125 550.548C74.8665 550.457 75.0151 550.352 75.1572 550.235C75.4446 550.049 75.7836 550.038 76.1084 550.042C76.4332 550.046 76.768 550.058 77.07 549.91C77.372 549.761 77.6341 549.405 77.6114 549.004C77.5905 548.81 77.5331 548.624 77.4439 548.461Z" fill="#FFD0A6"/>
</g>
<g style="mix-blend-mode:multiply" opacity="0.5">
<path d="M69.4365 561.747C69.7078 561.744 70.0092 561.829 70.1569 562.09C70.2501 562.285 70.2802 562.511 70.2418 562.729C70.2175 562.934 70.172 563.134 70.1061 563.326C70.0172 563.582 69.9035 563.826 69.7672 564.053C69.4935 564.55 69.1011 564.947 68.6363 565.197C66.63 566.174 67.1722 561.775 69.4365 561.747Z" fill="#FFD0A6"/>
</g>
</g>
<g style="mix-blend-mode:multiply" opacity="0.2">
<path d="M75.5597 566.254C73.1789 566.255 70.85 565.551 68.8625 564.229C66.875 562.907 65.3164 561.026 64.3806 558.818C63.4447 556.61 63.1728 554.173 63.5986 551.811C64.0244 549.448 65.1292 547.264 66.7756 545.53C65.4136 546.533 64.2736 547.811 63.4282 549.283C62.5829 550.755 62.0507 552.388 61.8655 554.078C61.6804 555.769 61.8463 557.48 62.3528 559.103C62.8593 560.725 63.6952 562.223 64.8074 563.502C65.9195 564.781 67.2834 565.812 68.8124 566.53C70.3414 567.248 72.0018 567.637 73.688 567.672C75.3742 567.707 77.0492 567.388 78.6063 566.735C80.1635 566.081 81.5686 565.108 82.7324 563.877C80.6543 565.421 78.1409 566.254 75.5597 566.254Z" fill="#222226"/>
</g>
<g style="mix-blend-mode:overlay" opacity="0.2">
<path d="M73.9485 543.153C72.1926 543.154 70.4581 543.541 68.8655 544.287C67.0177 546.392 65.9447 549.075 65.827 551.885C65.7093 554.694 66.5539 557.459 68.219 559.714C69.8842 561.97 72.2683 563.579 74.9708 564.27C77.6733 564.962 80.5295 564.695 83.0596 563.513C84.6095 561.745 85.6201 559.564 85.9698 557.231C86.3196 554.898 85.9937 552.512 85.0313 550.362C84.0688 548.211 82.5108 546.387 80.5447 545.108C78.5785 543.829 76.2879 543.15 73.9483 543.153H73.9485Z" fill="white"/>
</g>
<path d="M37.7879 372.093C43.5765 372.093 48.2691 367.36 48.2691 361.522C48.2691 355.684 43.5765 350.952 37.7879 350.952C31.9994 350.952 27.3068 355.684 27.3068 361.522C27.3068 367.36 31.9994 372.093 37.7879 372.093Z" fill="url(#paint98_linear)"/>
<g style="mix-blend-mode:multiply" opacity="0.11">
<path d="M31.3157 358.823C31.8243 359.075 32.2827 359.486 32.8761 359.627C33.6268 359.791 34.3959 359.821 35.1552 359.718C36.5938 359.544 37.9852 359.048 39.4155 358.805C40.2058 358.67 41.0169 358.609 41.7652 358.296C42.5896 357.95 43.2881 357.317 44.0714 356.866C44.8546 356.416 45.8217 356.159 46.6044 356.61C44.7734 357.223 43.4356 358.949 41.7534 359.96C40.8163 360.524 39.7819 360.858 38.8337 361.396C38.1971 361.758 37.5878 362.216 36.8886 362.381C36.2729 362.526 35.635 362.433 35.0061 362.439C33.4236 362.456 31.8969 363.092 30.6922 364.233C32.2318 363.988 33.7713 363.743 35.3108 363.498C35.8928 363.382 36.4841 363.334 37.0751 363.354C37.5482 363.388 38.0179 363.509 38.4908 363.478C40.2002 363.364 41.4683 361.331 43.1804 361.337C43.2443 361.883 42.8381 362.342 42.4659 362.707C41.3911 363.761 40.2843 364.836 38.9429 365.399C36.8448 366.279 34.4941 365.781 32.2811 366.182C31.0609 366.402 29.6459 366.843 28.7109 365.943C27.2904 364.577 28.2059 362.104 28.7652 360.561C29.1436 359.518 29.9053 358.314 31.0484 358.709C31.1394 358.742 31.2286 358.78 31.3157 358.823Z" fill="black"/>
<path d="M35.1082 353.558C34.2293 353.777 33.3107 354.07 32.3969 354.138C31.5548 354.202 30.8349 354.239 30.0335 354.552C29.9139 354.599 29.7807 354.665 29.762 354.776C29.7421 354.893 29.8659 354.993 29.9887 355.053C30.715 355.407 31.6218 355.142 32.4552 355.053C33.1684 354.977 33.8914 355.039 34.6097 355.009C36.3822 354.936 38.044 354.31 39.74 353.871C40.0109 353.801 40.3 353.736 40.574 353.797C40.848 353.858 41.0847 354.098 41.0037 354.325C40.9336 354.463 40.8091 354.576 40.6511 354.646C38.2912 355.959 35.2904 356.197 32.472 355.965C32.0305 355.929 31.4581 355.945 31.3053 356.295C33.7433 357.113 36.4646 357.103 38.894 356.267C39.6082 356.018 40.3852 355.693 41.1163 355.905C41.1356 356.185 40.7338 356.331 40.4106 356.403C38.8668 356.745 37.3743 357.234 35.9617 357.859C36.2725 358.286 37.0218 358.227 37.5998 358.105C39.9242 357.611 42.2811 356.902 43.9757 355.48C44.3363 355.178 44.6845 354.779 44.5804 354.36C44.4864 353.983 44.0628 353.739 43.6735 353.534C42.8857 353.121 42.0979 352.707 41.3101 352.294C40.0513 351.633 39.8546 351.963 38.752 352.474C37.6451 352.988 36.3147 353.256 35.1082 353.558Z" fill="black"/>
<path d="M47.4388 359.168C47.3891 358.851 47.0841 358.275 46.699 358.419C46.5473 358.491 46.4156 358.602 46.3162 358.741C45.6083 359.574 44.7409 360.084 43.7602 360.537C43.0783 360.537 41.6307 361.339 41.0119 361.674C40.3204 362.048 39.6993 362.532 38.9967 362.915C38.7917 363.017 38.5985 363.143 38.421 363.29C38.2622 363.432 38.1331 363.61 37.9654 363.741C37.4995 364.109 36.8532 364.051 36.2729 363.975C36.2336 364.029 36.2163 364.097 36.2248 364.164C36.2333 364.231 36.2669 364.291 36.3182 364.333C36.4245 364.411 36.5507 364.455 36.681 364.459C37.8576 364.593 39.0466 364.383 40.1152 363.853C41.5816 363.155 43.11 362.607 44.6786 362.218C43.5985 363.747 42.1538 364.957 40.4872 365.727C38.8074 366.5 36.9095 366.431 35.1792 365.853C34.9548 365.762 34.7232 365.693 34.487 365.645C34.2747 365.615 34.0574 365.638 33.8452 365.608C33.2405 365.523 32.7581 365.028 32.1669 364.872C32.1446 365.505 32.7174 365.977 33.2627 366.259C33.5569 366.426 33.8789 366.534 34.2118 366.577C34.4219 366.572 34.6318 366.593 34.8372 366.639C35.4448 366.846 35.7751 367.427 36.4398 367.602C37.3629 367.844 38.4298 367.735 39.3565 367.577C41.0135 367.291 42.5971 366.658 44.0109 365.714C43.8074 366.451 43.4089 367.112 42.8609 367.624C42.313 368.136 41.6378 368.477 40.9124 368.608C40.5392 368.67 40.1586 368.673 39.7891 368.756C39.1175 368.906 38.5084 369.311 37.8259 369.389C36.9859 369.486 36.0354 369.101 35.3463 369.61C36.4982 370.286 37.7872 370.668 39.1081 370.726C42.2525 370.861 45.3851 368.983 46.8972 366.11C46.9546 366.025 46.9819 365.922 46.9745 365.818C46.9595 365.766 46.9341 365.718 46.8999 365.677C46.8658 365.636 46.8237 365.603 46.7764 365.58C46.1301 365.195 45.0254 365.47 44.8153 364.727C44.7115 364.359 44.9608 363.969 45.2794 363.777C45.5981 363.584 45.9732 363.531 46.3285 363.431C47.1529 363.199 47.9327 362.657 48.2904 361.85C48.4141 361.569 48.4774 361.215 48.297 360.968C48.1627 360.784 47.929 360.711 47.768 360.552C47.4284 360.217 47.5136 359.647 47.4388 359.168Z" fill="black"/>
</g>
<g style="mix-blend-mode:multiply" opacity="0.2">
<path d="M39.4082 370.694C37.355 370.696 35.3465 370.089 33.6326 368.949C31.9186 367.809 30.5747 366.186 29.7681 364.282C28.9614 362.378 28.7276 360.276 29.0957 358.239C29.4637 356.202 30.4174 354.319 31.8382 352.824C30.6305 353.663 29.6108 354.748 28.8452 356.009C28.0795 357.27 27.5849 358.68 27.3935 360.146C27.202 361.612 27.3179 363.103 27.7336 364.521C28.1493 365.939 28.8556 367.254 29.8068 368.379C30.758 369.505 31.9329 370.416 33.2555 371.055C34.5781 371.694 36.0189 372.045 37.4848 372.087C38.9506 372.128 40.4087 371.859 41.7649 371.297C43.121 370.734 44.345 369.891 45.3575 368.821C43.6102 370.043 41.5343 370.696 39.4082 370.694Z" fill="#222226"/>
</g>
<g style="mix-blend-mode:overlay" opacity="0.3">
<path d="M37.7879 350.952C36.3071 350.952 34.8434 351.271 33.4943 351.887C31.971 353.72 31.1099 356.021 31.052 358.413C30.994 360.804 31.7427 363.144 33.1754 365.051C34.6081 366.957 36.6401 368.317 38.9387 368.907C41.2374 369.497 43.6665 369.283 45.8287 368.299C47.1074 366.757 47.9234 364.879 48.1809 362.886C48.4385 360.892 48.1269 358.866 47.2827 357.045C46.4385 355.223 45.0967 353.683 43.4149 352.604C41.733 351.524 39.7809 350.951 37.7875 350.952L37.7879 350.952Z" fill="white"/>
</g>
<path d="M383.227 613.649C397.268 610.073 405.775 595.694 402.229 581.534C398.683 567.374 384.425 558.794 370.385 562.37C356.344 565.947 347.837 580.325 351.383 594.486C354.93 608.646 369.187 617.226 383.227 613.649Z" fill="url(#paint99_linear)"/>
<g style="mix-blend-mode:multiply" opacity="0.2">
<path d="M367.327 607.704C363.814 605.587 360.841 602.67 358.646 599.187C356.451 595.704 355.095 591.751 354.687 587.644C354.278 583.538 354.828 579.392 356.293 575.538C357.759 571.685 360.098 568.23 363.124 565.452C360.008 567.372 357.324 569.927 355.244 572.953C353.164 575.98 351.734 579.412 351.046 583.029C350.358 586.645 350.427 590.367 351.248 593.955C352.069 597.543 353.625 600.919 355.815 603.866C358.005 606.812 360.782 609.265 363.967 611.066C367.152 612.867 370.675 613.977 374.31 614.325C377.945 614.673 381.612 614.251 385.076 613.087C388.54 611.922 391.725 610.04 394.426 607.562C390.351 610.074 385.672 611.415 380.896 611.441C376.12 611.466 371.428 610.173 367.327 607.704Z" fill="#222226"/>
</g>
<g style="mix-blend-mode:overlay" opacity="0.3">
<path d="M390.222 565.31C386.996 563.364 383.392 562.143 379.656 561.73C375.92 561.316 372.139 561.72 368.572 562.914C364.151 566.999 361.252 572.489 360.361 578.469C359.469 584.449 360.637 590.557 363.671 595.773C366.705 600.988 371.421 604.997 377.032 607.13C382.643 609.263 388.809 609.391 394.502 607.492C397.512 604.708 399.835 601.254 401.286 597.404C402.737 593.554 403.276 589.416 402.861 585.319C402.445 581.221 401.086 577.279 398.891 573.805C396.697 570.332 393.728 567.423 390.222 565.312L390.222 565.31Z" fill="white"/>
</g>
<g style="mix-blend-mode:multiply">
<mask id="mask0" mask-type="alpha" maskUnits="userSpaceOnUse" x="350" y="561" width="53" height="54">
<path d="M402.976 588.091C402.976 602.774 391.173 614.677 376.614 614.677C362.056 614.677 350.253 602.774 350.253 588.091C350.253 573.408 362.056 561.505 376.614 561.505C391.173 561.505 402.976 573.408 402.976 588.091Z" fill="#C4C4C4"/>
</mask>
<g mask="url(#mask0)">
<g style="mix-blend-mode:multiply">
<path d="M386.53 560.608C390.038 560.654 393.516 560.048 397.02 559.909C398.065 559.811 399.12 559.924 400.121 560.243C401.943 560.945 402.798 562.71 404.048 564.052C407.564 567.834 413.951 568.099 419.418 569.233C425.251 570.409 430.713 573 435.331 576.782C431.164 578.759 425.929 577.555 421.703 575.678C417.477 573.802 413.507 571.261 408.833 570.504C405.735 570.002 402.452 570.316 399.493 569.374C397.266 568.663 395.4 567.29 393.219 566.485C387.112 564.225 379.661 566.701 373.6 564.35C372.433 563.896 371.316 563.263 370.043 563.143C368.77 563.022 367.26 563.673 367.174 564.775C367.184 565.093 367.265 565.404 367.411 565.685C367.557 565.966 367.766 566.209 368.019 566.397C371.428 569.407 377.552 566.832 382.115 568.326C383.748 568.86 385.113 569.908 386.771 570.381C389.573 571.181 392.782 570.226 395.532 571.154C396.918 571.621 398.037 572.52 399.293 573.208C402.924 575.196 407.467 575.317 411.631 576.25C419.705 578.059 426.68 583.036 434.981 583.765C430.497 586.415 424.372 585.377 419.377 583.529C414.382 581.682 409.538 579.089 404.112 578.853C400.731 578.705 397.343 579.497 393.977 579.167C390.471 578.827 387.297 577.307 384.077 576.065C376.813 573.289 369.122 571.821 361.355 571.728C365.22 573.317 369.178 574.668 373.206 575.772L389.466 580.593C393.483 581.787 397.556 582.985 401.791 583.257C404.663 583.442 407.561 583.195 410.421 583.491C413.303 583.777 416.097 584.649 418.636 586.055C421.817 587.848 424.44 590.51 428.072 591.479C431.649 592.433 436.055 591.717 438.734 593.973C432.189 595.466 425.06 596.435 418.791 594.234C415.585 593.108 412.801 591.211 409.582 590.112C406.348 589.007 402.825 588.754 399.376 588.353C393.642 587.687 387.988 586.582 382.344 585.478C375.222 584.086 367.63 582.464 362.725 577.8C361.586 576.717 359.612 575.437 358.519 576.552C358.248 576.86 358.098 577.258 358.099 577.67C357.996 579.597 359.554 581.342 361.424 582.401C363.295 583.46 365.485 584.002 367.544 584.76C371.553 586.236 375.101 588.542 379.141 589.954C386.866 592.654 395.836 591.905 403.38 594.959C407.02 596.433 410.216 598.755 414.083 599.703C420.271 601.219 427.667 599.114 432.872 602.375C429.814 604.354 425.737 604.578 421.916 604.727C415.97 604.958 409.647 605.113 404.506 602.529C401.88 601.211 399.695 599.222 396.852 598.295C393.287 597.134 389.307 597.82 385.513 597.499C381.189 597.134 377.153 595.458 372.869 594.828C370.275 594.447 367.559 594.441 365.142 593.544C360.634 591.873 357.902 587.379 353.12 586.428C355.181 592.633 358.468 599.395 365.417 601.798C371.833 604.017 379.27 601.72 385.96 603.222C389.145 603.937 391.98 605.474 394.933 606.725C401.668 609.578 409.089 610.964 416.425 612.324C419.482 612.965 422.579 613.392 425.694 613.602C421.713 615.721 416.682 615.442 412.023 615.092C407.228 614.733 402.378 614.364 397.826 613.02C394.385 612.002 391.175 610.441 387.686 609.549C380.119 607.613 371.782 608.943 364.287 606.809C367.086 610.385 373.18 610.074 377.843 611.636C379.762 612.279 381.493 613.281 383.373 614.008C385.042 614.616 386.755 615.096 388.497 615.442C396.086 617.09 403.808 618.035 411.568 618.264C407.711 621.638 402.814 623.56 397.71 623.701C390.126 623.965 383.117 620.596 376.09 618.124C372.042 616.7 367.845 615.541 364.061 613.655C359.845 611.451 356.027 608.546 352.768 605.063C346.768 598.908 342.004 591.553 341.035 583.555C340.666 580.984 340.87 578.363 341.634 575.882C343.372 570.636 348.134 566.608 352.71 562.839C356.277 559.9 360.209 556.811 365.108 556.312C369.315 555.886 372.86 556.594 376.732 557.876C379.922 558.926 383.024 560.562 386.53 560.608Z" fill="#D1992A"/>
</g>
</g>
</g>
<path d="M420.798 605.253C422.689 600.397 415.326 592.588 402.817 585.007C402.984 586.477 403.027 587.958 402.948 589.436C406.918 592.856 408.889 596.016 408.011 598.269C406.031 603.355 390.324 601.893 372.93 595.002C355.537 588.112 343.041 578.403 345.023 573.316C346.032 570.724 350.619 569.843 357.166 570.503C358.061 569.487 359.033 568.542 360.073 567.677C344.649 564.074 332.933 564.543 330.943 569.654C328.117 576.911 345.938 590.763 370.754 600.592C395.57 610.421 417.972 612.507 420.798 605.253Z" fill="url(#paint100_linear)"/>
<g style="mix-blend-mode:multiply">
<g style="mix-blend-mode:multiply">
<path d="M408.026 598.207C408.263 597.942 408.451 597.637 408.583 597.306C409.46 595.053 407.489 591.893 403.52 588.473C403.566 587.458 403.555 586.441 403.487 585.427C403.261 585.288 403.046 585.149 402.818 585.009C402.984 586.479 403.028 587.96 402.949 589.437C406.882 592.825 408.844 595.957 408.026 598.207Z" fill="#C9AF81"/>
</g>
<g style="mix-blend-mode:multiply">
<path d="M345.594 572.352C345.586 572.371 345.589 572.392 345.582 572.411C347.235 570.525 351.453 569.926 357.167 570.504C358.061 569.487 359.033 568.542 360.073 567.677C359.936 567.646 359.808 567.62 359.67 567.588C358.992 568.203 358.347 568.854 357.739 569.538C351.191 568.878 346.604 569.76 345.594 572.352Z" fill="#C9AF81"/>
</g>
<g style="mix-blend-mode:multiply">
<path d="M371.326 599.628C346.512 589.798 328.689 575.947 331.514 568.692C331.527 568.659 331.549 568.632 331.563 568.6C331.307 568.92 331.099 569.276 330.944 569.656C328.118 576.913 345.939 590.764 370.755 600.593C395.447 610.372 417.749 612.484 420.75 605.353C416.158 611.296 394.826 608.938 371.326 599.628Z" fill="#C9AF81"/>
</g>
</g>
<path d="M246.185 669.482C267.453 664.411 280.618 642.913 275.591 621.464C270.564 600.014 249.247 586.736 227.979 591.807C206.711 596.877 193.545 618.375 198.572 639.825C203.6 661.274 224.916 674.552 246.185 669.482Z" fill="url(#paint101_linear)"/>
<g style="mix-blend-mode:multiply" opacity="0.2">
<path d="M242.62 668.084C233.819 668.082 225.269 665.122 218.322 659.672C211.375 654.223 206.428 646.593 204.261 637.99C202.095 629.387 202.833 620.301 206.359 612.169C209.885 604.036 215.998 597.32 223.732 593.084C218.6 594.94 213.903 597.846 209.937 601.619C205.97 605.392 202.819 609.951 200.682 615.01C198.544 620.068 197.466 625.518 197.514 631.017C197.563 636.515 198.738 641.945 200.964 646.964C203.191 651.983 206.422 656.485 210.455 660.186C214.488 663.887 219.235 666.708 224.399 668.471C229.564 670.235 235.034 670.904 240.466 670.436C245.899 669.968 251.177 668.373 255.97 665.751C251.686 667.298 247.17 668.087 242.62 668.084Z" fill="#222226"/>
</g>
<g style="mix-blend-mode:overlay" opacity="0.2">
<path d="M237.083 590.749C231.864 590.743 226.696 591.781 221.878 593.804C215.671 600.456 211.915 609.054 211.235 618.163C210.556 627.272 212.994 636.34 218.144 643.854C223.294 651.368 230.844 656.874 239.533 659.451C248.222 662.029 257.525 661.523 265.889 658.018C271.188 652.347 274.724 645.235 276.061 637.56C277.399 629.886 276.479 621.984 273.415 614.831C270.352 607.677 265.279 601.585 258.822 597.305C252.365 593.026 244.807 590.746 237.081 590.748L237.083 590.749Z" fill="white"/>
</g>
<g style="mix-blend-mode:multiply" opacity="0.8">
<path d="M237.448 590.824C230.014 590.824 224.608 592.187 218.865 595.253C214.81 596.957 210.08 601.387 209.141 602.484C209.439 603.584 210.051 604.536 210.878 605.185C211.915 606.047 213.133 606.577 214.406 606.719C215.679 606.861 216.963 606.611 218.125 605.995C219.724 605.118 221.57 603.537 223.027 604.697C223.998 605.469 224.14 607.093 224.969 608.061C226.27 609.579 228.628 608.755 229.855 607.158C231.082 605.561 231.64 603.429 232.682 601.665C235.238 597.334 240.205 595.928 244.745 595.616C246.117 595.522 247.545 595.508 248.799 596.154C250.053 596.799 251.084 598.279 250.926 599.851C250.691 602.199 248.108 603.523 247.872 605.871C247.702 607.566 248.905 609.115 250.291 609.719C251.677 610.324 253.207 610.212 254.687 610.154C257.25 610.05 259.932 610.147 262.194 611.538C264.456 612.93 266.141 615.978 265.46 618.826C264.823 621.496 262.425 623.087 260.105 623.82C257.785 624.553 255.307 624.74 253.159 625.984C250.408 627.577 248.464 630.758 245.568 631.971C243.943 632.652 242.153 632.649 240.516 633.288C238.879 633.928 237.298 635.604 237.515 637.579C237.752 639.745 240.008 640.875 241.895 640.657C243.783 640.44 245.508 639.347 247.365 638.905C250.267 638.213 253.273 639.155 256.036 640.393C257.708 641.141 259.394 642.042 260.6 643.573C261.805 645.103 262.429 647.408 261.692 649.294C260.806 651.565 258.381 652.425 256.22 652.552C254.059 652.68 251.803 652.354 249.805 653.31C247.806 654.265 246.304 657.229 247.535 659.278C248.466 660.828 250.392 661.016 252.014 660.755C253.636 660.494 255.325 659.952 256.869 660.581C258.255 661.145 259.469 662.63 260.919 662.346C261.692 662.101 262.387 661.602 262.917 660.909C266.49 657.436 270.28 653.525 272.371 648.657C277.076 638.929 276.544 633.119 276.371 625.642C276.254 620.582 273.568 615.415 272.002 611.95C270.254 608.084 267.356 604.919 264.478 601.977C263.093 600.561 261.484 599.298 259.747 598.559C257.177 597.464 254.672 597.574 252.174 596.275C249.374 594.819 246.977 593.037 244.205 591.505C241.502 590.824 239.137 590.824 237.448 590.824Z" fill="#BC8867"/>
</g>
<g style="mix-blend-mode:multiply" opacity="0.8">
<path d="M228.157 616.388C227.273 616.721 226.355 616.956 225.419 617.091C223.561 617.342 221.624 617.094 219.839 617.661C218.523 618.079 217.389 618.91 216.154 619.521C210.429 622.351 208.671 615.57 203.714 615.245C201.862 615.124 200.424 616.049 199.606 617.691C199.503 618.425 198.93 619.788 198.592 621.492L198.289 623.894C198.217 624.458 198.257 625.03 198.407 625.579C198.627 626.216 199.127 626.713 199.503 627.275C200.948 629.441 200.433 632.288 199.926 634.833C199.418 637.378 199.061 640.295 200.712 642.312C201.453 643.218 202.51 643.808 203.54 644.377C204.773 645.059 206.197 645.759 207.537 645.318C208.42 645.026 209.07 644.288 209.884 643.842C210.819 643.378 211.901 643.294 212.898 643.608C213.895 643.922 214.728 644.609 215.217 645.522C215.602 646.414 215.746 647.389 215.635 648.353C215.501 650.127 214.916 651.839 214.671 653.601C214.426 655.364 214.574 657.308 215.719 658.682C217.128 660.374 219.746 660.719 221.821 659.944C223.895 659.169 225.494 657.484 226.735 655.669C227.632 654.357 228.573 652.812 230.15 652.513C231.281 652.299 232.641 652.757 233.486 651.984C234.019 651.497 234.102 650.703 234.096 649.986C234.076 647.713 233.568 645.213 234.863 643.333C236.368 641.149 234.542 637.265 236.772 635.803C237.293 635.461 240.137 632.71 239.475 631.373C238.461 629.329 235.616 629.857 234.407 629.67C229.677 629.67 230.352 636.001 227.416 636.888C225.343 637.515 223.259 638.384 221.099 638.207C220.534 638.161 219.905 637.992 219.639 637.499C219.482 637.132 219.465 636.721 219.59 636.342C219.793 635.544 220.178 634.802 220.715 634.172C221.252 633.543 221.928 633.042 222.691 632.71C223.702 632.279 224.846 632.152 225.778 631.572C226.71 630.993 227.328 629.662 226.635 628.818C226.074 628.136 225.041 628.168 224.159 628.06C223.276 627.953 222.228 627.341 222.421 626.485C222.502 626.21 222.662 625.962 222.881 625.773C224.84 623.875 228.013 624.357 230.723 623.919C233.491 623.472 236.645 621.124 238.779 619.464C239.876 618.609 242.437 616.723 242.454 615.223C242.48 612.741 238.999 612.412 237.242 612.736C234.023 613.327 231.206 615.278 228.157 616.388Z" fill="#A36B48"/>
</g>
<g filter="url(#filter1_d)">
<path d="M32.7032 495.006C57.3722 470.126 57.3722 429.789 32.7032 404.91C8.03421 380.031 -31.9622 380.031 -56.6312 404.91C-81.3002 429.789 -81.3002 470.126 -56.6312 495.006C-31.9622 519.885 8.03421 519.885 32.7032 495.006Z" fill="url(#paint102_linear)"/>
<g style="mix-blend-mode:multiply" opacity="0.2">
<path d="M-3.69065 503.462C-17.9267 503.464 -31.6829 498.272 -42.4207 488.846C-53.1585 479.419 -60.153 466.394 -62.1137 452.173C-64.0743 437.953 -60.8686 423.497 -53.0882 411.473C-45.3078 399.45 -33.4778 390.67 -19.7814 386.755C-30.6516 388.125 -40.9815 392.324 -49.7566 398.938C-58.5318 405.551 -65.4505 414.353 -69.8333 424.479C-74.2161 434.604 -75.9123 445.705 -74.7554 456.692C-73.5985 467.678 -69.6283 478.172 -63.2345 487.144C-56.8408 496.115 -48.2434 503.255 -38.2866 507.862C-28.3298 512.47 -17.356 514.386 -6.44278 513.424C4.47044 512.461 14.9478 508.653 23.9606 502.373C32.9733 496.092 40.2114 487.556 44.9642 477.601C39.5519 485.578 32.2915 492.103 23.8129 496.61C15.3342 501.116 5.89342 503.469 -3.69065 503.462Z" fill="#222226"/>
</g>
<path opacity="0.2" d="M-11.1502 386.267C-19.177 388.824 -26.5024 393.232 -32.5451 399.142C-38.5877 405.052 -43.1814 412.302 -45.9614 420.315C-48.7414 428.328 -49.6312 436.884 -48.5603 445.304C-47.4894 453.724 -44.4872 461.777 -39.792 468.823C-35.0967 475.869 -28.8377 481.714 -21.5117 485.895C-14.1856 490.076 -5.99421 492.477 2.41251 492.908C10.8192 493.339 19.2098 491.788 26.9184 488.377C34.627 484.967 41.4414 479.792 46.8207 473.262C50.5616 463.669 51.9377 453.303 50.8307 443.055C49.7236 432.807 46.1666 422.983 40.4651 414.427C34.7637 405.871 27.0881 398.838 18.0976 393.933C9.10718 389.028 -0.929432 386.398 -11.1502 386.267Z" fill="white"/>
</g>
<path d="M361.351 133.668C373.966 133.668 384.193 123.354 384.193 110.632C384.193 97.9088 373.966 87.5951 361.351 87.5951C348.736 87.5951 338.509 97.9088 338.509 110.632C338.509 123.354 348.736 133.668 361.351 133.668Z" fill="url(#paint103_linear)"/>
<g style="mix-blend-mode:multiply" opacity="0.2">
<path d="M364.642 131.215C360.007 131.216 355.481 129.794 351.665 127.138C347.85 124.483 344.927 120.719 343.283 116.348C341.64 111.977 341.355 107.204 342.465 102.665C343.576 98.1264 346.029 94.0357 349.5 90.9369C346.787 92.5961 344.446 94.8071 342.627 97.4291C340.808 100.051 339.551 103.027 338.936 106.166C338.32 109.305 338.36 112.539 339.052 115.662C339.745 118.785 341.075 121.728 342.957 124.304C344.84 126.88 347.234 129.031 349.987 130.622C352.74 132.213 355.792 133.208 358.947 133.544C362.103 133.879 365.293 133.548 368.315 132.572C371.336 131.595 374.123 129.994 376.497 127.871C372.926 130.064 368.823 131.221 364.642 131.215Z" fill="#222226"/>
</g>
<g style="mix-blend-mode:overlay" opacity="0.5">
<path d="M378.471 125.878C381.226 122.735 383.077 118.894 383.824 114.768C384.572 110.642 384.188 106.388 382.714 102.466C381.24 98.5441 378.731 95.1026 375.46 92.5133C372.188 89.9239 368.277 88.2849 364.149 87.7733C361.039 88.1798 358.061 89.2912 355.439 91.0242C352.816 92.7571 350.616 95.0665 349.005 97.7792C347.393 100.492 346.412 103.537 346.134 106.687C345.856 109.837 346.289 113.01 347.4 115.967C348.512 118.924 350.273 121.588 352.551 123.761C354.83 125.934 357.566 127.558 360.556 128.511C363.545 129.465 366.71 129.723 369.813 129.267C372.916 128.811 375.876 127.653 378.471 125.878Z" fill="white"/>
</g>
<mask id="mask1" mask-type="alpha" maskUnits="userSpaceOnUse" x="338" y="87" width="47" height="47">
<ellipse cx="361.501" cy="110.695" rx="22.6251" ry="22.8179" fill="white"/>
</mask>
<g mask="url(#mask1)">
<g style="mix-blend-mode:multiply" opacity="0.5">
<path d="M335.218 95.8962C349.003 96.7409 362.815 94.8037 375.848 90.1979C360.635 101.777 338.162 104.817 318.307 100.81C323.062 102.886 328.546 103.349 333.886 103.545C350.615 104.161 368.435 102.173 381.543 93.3023C379.914 98.3381 373.988 101.347 368.449 103.593C360.841 106.681 352.918 109.346 344.608 110.551C336.298 111.755 327.543 111.436 319.743 108.719C337.899 115.492 359.158 113.388 377.702 107.423C362.641 115.49 344.23 118.919 326.588 116.943C340.367 119.17 355.281 120.777 367.866 115.508C357.926 120.207 346.347 122.353 335.013 121.602C344.524 123.175 354.247 122.883 363.648 120.743C355.574 125.22 345.257 125.105 335.627 124.836C351.045 128.278 368.324 124.957 380.511 116.211C379.476 123.108 371.888 127.773 364.689 131.054C360.003 133.19 355.131 135.131 349.933 136.073C341.121 137.669 331.456 136.147 324.284 131.505C317.113 126.864 312.751 119.049 313.695 111.421C314.325 106.327 316.624 98.9928 322.568 96.7876C326.977 95.1517 330.641 95.6173 335.218 95.8962Z" fill="#51BCB7"/>
</g>
<g style="mix-blend-mode:multiply" opacity="0.2">
<path d="M381.016 92.615C376.247 91.0778 371.488 90.0825 366.368 90.8488C361.893 91.519 357.756 93.3159 353.12 93.3391C351.467 93.3473 332.67 93.9991 332.744 93.1793C332.694 93.7368 333.372 94.1522 333.989 94.4426C339.519 97.0316 346.098 98.0905 352.553 97.954C359.008 97.8174 365.352 96.532 371.365 94.7037C362.859 100.138 351.777 103.081 340.77 102.832C353.345 104.047 366.674 103.974 377.976 99.5188C375.812 101.379 373.329 102.826 370.649 103.788C367.949 104.78 365.026 105.351 362.103 105.826C356.378 106.757 350.604 107.351 344.811 107.603C357.337 108.786 370.473 108.45 381.956 104.385C374.253 108.074 366.434 111.281 357.518 112.821C361.544 112.125 366.13 112.064 370.202 111.841C374.808 111.59 379.548 110.51 383.866 109.292C379.983 113.295 373.851 115.641 367.623 116.944C361.395 118.247 354.92 118.639 348.576 119.548C354.593 120.724 360.954 120.466 367.028 119.483C373.103 118.5 378.945 116.815 384.76 115.135C380.671 118.259 375.332 120.246 369.818 121.466C364.305 122.686 358.576 123.183 352.877 123.674C355.828 125.508 359.9 125.729 363.676 125.639C369.045 125.512 374.391 124.911 379.655 123.843C370.575 128.431 359.291 130.31 348.59 129.017C352.258 130.862 356.922 131 361.27 130.658C368.29 130.124 375.176 128.443 381.66 125.679C384.635 124.392 387.483 122.858 389.691 120.844C391.624 119.056 393.154 116.871 394.178 114.437C396.481 109.105 396.292 102.777 391.824 98.3521C389.099 95.6568 385.092 93.928 381.016 92.615Z" fill="#51BCB7"/>
</g>
</g>
<g style="mix-blend-mode:multiply" opacity="0.6">
<rect x="-600" y="-152" width="1200" height="1200" fill="black"/>
</g>
<defs>
<filter id="filter0_f" x="-83.6644" y="40.0522" width="555.713" height="852.483" filterUnits="userSpaceOnUse" color-interpolation-filters="sRGB">
<feFlood flood-opacity="0" result="BackgroundImageFix"/>
<feBlend mode="normal" in="SourceGraphic" in2="BackgroundImageFix" result="shape"/>
<feGaussianBlur stdDeviation="1" result="effect1_foregroundBlur"/>
</filter>
<filter id="filter1_d" x="-145.133" y="316.251" width="266.338" height="267.416" filterUnits="userSpaceOnUse" color-interpolation-filters="sRGB">
<feFlood flood-opacity="0" result="BackgroundImageFix"/>
<feColorMatrix in="SourceAlpha" type="matrix" values="0 0 0 0 0 0 0 0 0 0 0 0 0 0 0 0 0 0 127 0"/>
<feOffset/>
<feGaussianBlur stdDeviation="35"/>
<feColorMatrix type="matrix" values="0 0 0 0 1 0 0 0 0 0.815686 0 0 0 0 0 0 0 0 0.4 0"/>
<feBlend mode="normal" in2="BackgroundImageFix" result="effect1_dropShadow"/>
<feBlend mode="normal" in="SourceGraphic" in2="effect1_dropShadow" result="shape"/>
</filter>
<linearGradient id="paint0_linear" x1="194.192" y1="42.0522" x2="194.192" y2="890.536" gradientUnits="userSpaceOnUse">
<stop stop-color="white"/>
<stop offset="1" stop-color="white" stop-opacity="0"/>
</linearGradient>
<linearGradient id="paint1_linear" x1="194.192" y1="42.0522" x2="194.192" y2="890.536" gradientUnits="userSpaceOnUse">
<stop stop-color="white"/>
<stop offset="1" stop-color="white" stop-opacity="0"/>
</linearGradient>
<linearGradient id="paint2_linear" x1="194.192" y1="42.0522" x2="194.192" y2="890.536" gradientUnits="userSpaceOnUse">
<stop stop-color="white"/>
<stop offset="1" stop-color="white" stop-opacity="0"/>
</linearGradient>
<linearGradient id="paint3_linear" x1="194.192" y1="42.0522" x2="194.192" y2="890.536" gradientUnits="userSpaceOnUse">
<stop stop-color="white"/>
<stop offset="1" stop-color="white" stop-opacity="0"/>
</linearGradient>
<linearGradient id="paint4_linear" x1="194.192" y1="42.0522" x2="194.192" y2="890.536" gradientUnits="userSpaceOnUse">
<stop stop-color="white"/>
<stop offset="1" stop-color="white" stop-opacity="0"/>
</linearGradient>
<linearGradient id="paint5_linear" x1="194.192" y1="42.0522" x2="194.192" y2="890.536" gradientUnits="userSpaceOnUse">
<stop stop-color="white"/>
<stop offset="1" stop-color="white" stop-opacity="0"/>
</linearGradient>
<linearGradient id="paint6_linear" x1="194.192" y1="42.0522" x2="194.192" y2="890.536" gradientUnits="userSpaceOnUse">
<stop stop-color="white"/>
<stop offset="1" stop-color="white" stop-opacity="0"/>
</linearGradient>
<linearGradient id="paint7_linear" x1="194.192" y1="42.0522" x2="194.192" y2="890.536" gradientUnits="userSpaceOnUse">
<stop stop-color="white"/>
<stop offset="1" stop-color="white" stop-opacity="0"/>
</linearGradient>
<linearGradient id="paint8_linear" x1="194.192" y1="42.0522" x2="194.192" y2="890.536" gradientUnits="userSpaceOnUse">
<stop stop-color="white"/>
<stop offset="1" stop-color="white" stop-opacity="0"/>
</linearGradient>
<linearGradient id="paint9_linear" x1="194.192" y1="42.0522" x2="194.192" y2="890.536" gradientUnits="userSpaceOnUse">
<stop stop-color="white"/>
<stop offset="1" stop-color="white" stop-opacity="0"/>
</linearGradient>
<linearGradient id="paint10_linear" x1="194.192" y1="42.0522" x2="194.192" y2="890.536" gradientUnits="userSpaceOnUse">
<stop stop-color="white"/>
<stop offset="1" stop-color="white" stop-opacity="0"/>
</linearGradient>
<linearGradient id="paint11_linear" x1="194.192" y1="42.0522" x2="194.192" y2="890.536" gradientUnits="userSpaceOnUse">
<stop stop-color="white"/>
<stop offset="1" stop-color="white" stop-opacity="0"/>
</linearGradient>
<linearGradient id="paint12_linear" x1="194.192" y1="42.0522" x2="194.192" y2="890.536" gradientUnits="userSpaceOnUse">
<stop stop-color="white"/>
<stop offset="1" stop-color="white" stop-opacity="0"/>
</linearGradient>
<linearGradient id="paint13_linear" x1="194.192" y1="42.0522" x2="194.192" y2="890.536" gradientUnits="userSpaceOnUse">
<stop stop-color="white"/>
<stop offset="1" stop-color="white" stop-opacity="0"/>
</linearGradient>
<linearGradient id="paint14_linear" x1="194.192" y1="42.0522" x2="194.192" y2="890.536" gradientUnits="userSpaceOnUse">
<stop stop-color="white"/>
<stop offset="1" stop-color="white" stop-opacity="0"/>
</linearGradient>
<linearGradient id="paint15_linear" x1="194.192" y1="42.0522" x2="194.192" y2="890.536" gradientUnits="userSpaceOnUse">
<stop stop-color="white"/>
<stop offset="1" stop-color="white" stop-opacity="0"/>
</linearGradient>
<linearGradient id="paint16_linear" x1="194.192" y1="42.0522" x2="194.192" y2="890.536" gradientUnits="userSpaceOnUse">
<stop stop-color="white"/>
<stop offset="1" stop-color="white" stop-opacity="0"/>
</linearGradient>
<linearGradient id="paint17_linear" x1="194.192" y1="42.0522" x2="194.192" y2="890.536" gradientUnits="userSpaceOnUse">
<stop stop-color="white"/>
<stop offset="1" stop-color="white" stop-opacity="0"/>
</linearGradient>
<linearGradient id="paint18_linear" x1="194.192" y1="42.0522" x2="194.192" y2="890.536" gradientUnits="userSpaceOnUse">
<stop stop-color="white"/>
<stop offset="1" stop-color="white" stop-opacity="0"/>
</linearGradient>
<linearGradient id="paint19_linear" x1="194.192" y1="42.0522" x2="194.192" y2="890.536" gradientUnits="userSpaceOnUse">
<stop stop-color="white"/>
<stop offset="1" stop-color="white" stop-opacity="0"/>
</linearGradient>
<linearGradient id="paint20_linear" x1="194.192" y1="42.0522" x2="194.192" y2="890.536" gradientUnits="userSpaceOnUse">
<stop stop-color="white"/>
<stop offset="1" stop-color="white" stop-opacity="0"/>
</linearGradient>
<linearGradient id="paint21_linear" x1="194.192" y1="42.0522" x2="194.192" y2="890.536" gradientUnits="userSpaceOnUse">
<stop stop-color="white"/>
<stop offset="1" stop-color="white" stop-opacity="0"/>
</linearGradient>
<linearGradient id="paint22_linear" x1="194.192" y1="42.0522" x2="194.192" y2="890.536" gradientUnits="userSpaceOnUse">
<stop stop-color="white"/>
<stop offset="1" stop-color="white" stop-opacity="0"/>
</linearGradient>
<linearGradient id="paint23_linear" x1="194.192" y1="42.0522" x2="194.192" y2="890.536" gradientUnits="userSpaceOnUse">
<stop stop-color="white"/>
<stop offset="1" stop-color="white" stop-opacity="0"/>
</linearGradient>
<linearGradient id="paint24_linear" x1="194.192" y1="42.0522" x2="194.192" y2="890.536" gradientUnits="userSpaceOnUse">
<stop stop-color="white"/>
<stop offset="1" stop-color="white" stop-opacity="0"/>
</linearGradient>
<linearGradient id="paint25_linear" x1="194.192" y1="42.0522" x2="194.192" y2="890.536" gradientUnits="userSpaceOnUse">
<stop stop-color="white"/>
<stop offset="1" stop-color="white" stop-opacity="0"/>
</linearGradient>
<linearGradient id="paint26_linear" x1="194.192" y1="42.0522" x2="194.192" y2="890.536" gradientUnits="userSpaceOnUse">
<stop stop-color="white"/>
<stop offset="1" stop-color="white" stop-opacity="0"/>
</linearGradient>
<linearGradient id="paint27_linear" x1="194.192" y1="42.0522" x2="194.192" y2="890.536" gradientUnits="userSpaceOnUse">
<stop stop-color="white"/>
<stop offset="1" stop-color="white" stop-opacity="0"/>
</linearGradient>
<linearGradient id="paint28_linear" x1="194.192" y1="42.0522" x2="194.192" y2="890.536" gradientUnits="userSpaceOnUse">
<stop stop-color="white"/>
<stop offset="1" stop-color="white" stop-opacity="0"/>
</linearGradient>
<linearGradient id="paint29_linear" x1="194.192" y1="42.0522" x2="194.192" y2="890.536" gradientUnits="userSpaceOnUse">
<stop stop-color="white"/>
<stop offset="1" stop-color="white" stop-opacity="0"/>
</linearGradient>
<linearGradient id="paint30_linear" x1="194.192" y1="42.0522" x2="194.192" y2="890.536" gradientUnits="userSpaceOnUse">
<stop stop-color="white"/>
<stop offset="1" stop-color="white" stop-opacity="0"/>
</linearGradient>
<linearGradient id="paint31_linear" x1="194.192" y1="42.0522" x2="194.192" y2="890.536" gradientUnits="userSpaceOnUse">
<stop stop-color="white"/>
<stop offset="1" stop-color="white" stop-opacity="0"/>
</linearGradient>
<linearGradient id="paint32_linear" x1="194.192" y1="42.0522" x2="194.192" y2="890.536" gradientUnits="userSpaceOnUse">
<stop stop-color="white"/>
<stop offset="1" stop-color="white" stop-opacity="0"/>
</linearGradient>
<linearGradient id="paint33_linear" x1="194.192" y1="42.0522" x2="194.192" y2="890.536" gradientUnits="userSpaceOnUse">
<stop stop-color="white"/>
<stop offset="1" stop-color="white" stop-opacity="0"/>
</linearGradient>
<linearGradient id="paint34_linear" x1="194.192" y1="42.0522" x2="194.192" y2="890.536" gradientUnits="userSpaceOnUse">
<stop stop-color="white"/>
<stop offset="1" stop-color="white" stop-opacity="0"/>
</linearGradient>
<linearGradient id="paint35_linear" x1="194.192" y1="42.0522" x2="194.192" y2="890.536" gradientUnits="userSpaceOnUse">
<stop stop-color="white"/>
<stop offset="1" stop-color="white" stop-opacity="0"/>
</linearGradient>
<linearGradient id="paint36_linear" x1="194.192" y1="42.0522" x2="194.192" y2="890.536" gradientUnits="userSpaceOnUse">
<stop stop-color="white"/>
<stop offset="1" stop-color="white" stop-opacity="0"/>
</linearGradient>
<linearGradient id="paint37_linear" x1="194.192" y1="42.0522" x2="194.192" y2="890.536" gradientUnits="userSpaceOnUse">
<stop stop-color="white"/>
<stop offset="1" stop-color="white" stop-opacity="0"/>
</linearGradient>
<linearGradient id="paint38_linear" x1="194.192" y1="42.0522" x2="194.192" y2="890.536" gradientUnits="userSpaceOnUse">
<stop stop-color="white"/>
<stop offset="1" stop-color="white" stop-opacity="0"/>
</linearGradient>
<linearGradient id="paint39_linear" x1="194.192" y1="42.0522" x2="194.192" y2="890.536" gradientUnits="userSpaceOnUse">
<stop stop-color="white"/>
<stop offset="1" stop-color="white" stop-opacity="0"/>
</linearGradient>
<linearGradient id="paint40_linear" x1="194.192" y1="42.0522" x2="194.192" y2="890.536" gradientUnits="userSpaceOnUse">
<stop stop-color="white"/>
<stop offset="1" stop-color="white" stop-opacity="0"/>
</linearGradient>
<linearGradient id="paint41_linear" x1="194.192" y1="42.0522" x2="194.192" y2="890.536" gradientUnits="userSpaceOnUse">
<stop stop-color="white"/>
<stop offset="1" stop-color="white" stop-opacity="0"/>
</linearGradient>
<linearGradient id="paint42_linear" x1="194.192" y1="42.0522" x2="194.192" y2="890.536" gradientUnits="userSpaceOnUse">
<stop stop-color="white"/>
<stop offset="1" stop-color="white" stop-opacity="0"/>
</linearGradient>
<linearGradient id="paint43_linear" x1="194.192" y1="42.0522" x2="194.192" y2="890.536" gradientUnits="userSpaceOnUse">
<stop stop-color="white"/>
<stop offset="1" stop-color="white" stop-opacity="0"/>
</linearGradient>
<linearGradient id="paint44_linear" x1="194.192" y1="42.0522" x2="194.192" y2="890.536" gradientUnits="userSpaceOnUse">
<stop stop-color="white"/>
<stop offset="1" stop-color="white" stop-opacity="0"/>
</linearGradient>
<linearGradient id="paint45_linear" x1="194.192" y1="42.0522" x2="194.192" y2="890.536" gradientUnits="userSpaceOnUse">
<stop stop-color="white"/>
<stop offset="1" stop-color="white" stop-opacity="0"/>
</linearGradient>
<linearGradient id="paint46_linear" x1="194.192" y1="42.0522" x2="194.192" y2="890.536" gradientUnits="userSpaceOnUse">
<stop stop-color="white"/>
<stop offset="1" stop-color="white" stop-opacity="0"/>
</linearGradient>
<linearGradient id="paint47_linear" x1="194.192" y1="42.0522" x2="194.192" y2="890.536" gradientUnits="userSpaceOnUse">
<stop stop-color="white"/>
<stop offset="1" stop-color="white" stop-opacity="0"/>
</linearGradient>
<linearGradient id="paint48_linear" x1="194.192" y1="42.0522" x2="194.192" y2="890.536" gradientUnits="userSpaceOnUse">
<stop stop-color="white"/>
<stop offset="1" stop-color="white" stop-opacity="0"/>
</linearGradient>
<linearGradient id="paint49_linear" x1="194.192" y1="42.0522" x2="194.192" y2="890.536" gradientUnits="userSpaceOnUse">
<stop stop-color="white"/>
<stop offset="1" stop-color="white" stop-opacity="0"/>
</linearGradient>
<linearGradient id="paint50_linear" x1="194.192" y1="42.0522" x2="194.192" y2="890.536" gradientUnits="userSpaceOnUse">
<stop stop-color="white"/>
<stop offset="1" stop-color="white" stop-opacity="0"/>
</linearGradient>
<linearGradient id="paint51_linear" x1="194.192" y1="42.0522" x2="194.192" y2="890.536" gradientUnits="userSpaceOnUse">
<stop stop-color="white"/>
<stop offset="1" stop-color="white" stop-opacity="0"/>
</linearGradient>
<linearGradient id="paint52_linear" x1="194.192" y1="42.0522" x2="194.192" y2="890.536" gradientUnits="userSpaceOnUse">
<stop stop-color="white"/>
<stop offset="1" stop-color="white" stop-opacity="0"/>
</linearGradient>
<linearGradient id="paint53_linear" x1="194.192" y1="42.0522" x2="194.192" y2="890.536" gradientUnits="userSpaceOnUse">
<stop stop-color="white"/>
<stop offset="1" stop-color="white" stop-opacity="0"/>
</linearGradient>
<linearGradient id="paint54_linear" x1="194.192" y1="42.0522" x2="194.192" y2="890.536" gradientUnits="userSpaceOnUse">
<stop stop-color="white"/>
<stop offset="1" stop-color="white" stop-opacity="0"/>
</linearGradient>
<linearGradient id="paint55_linear" x1="194.192" y1="42.0522" x2="194.192" y2="890.536" gradientUnits="userSpaceOnUse">
<stop stop-color="white"/>
<stop offset="1" stop-color="white" stop-opacity="0"/>
</linearGradient>
<linearGradient id="paint56_linear" x1="194.192" y1="42.0522" x2="194.192" y2="890.536" gradientUnits="userSpaceOnUse">
<stop stop-color="white"/>
<stop offset="1" stop-color="white" stop-opacity="0"/>
</linearGradient>
<linearGradient id="paint57_linear" x1="194.192" y1="42.0522" x2="194.192" y2="890.536" gradientUnits="userSpaceOnUse">
<stop stop-color="white"/>
<stop offset="1" stop-color="white" stop-opacity="0"/>
</linearGradient>
<linearGradient id="paint58_linear" x1="194.192" y1="42.0522" x2="194.192" y2="890.536" gradientUnits="userSpaceOnUse">
<stop stop-color="white"/>
<stop offset="1" stop-color="white" stop-opacity="0"/>
</linearGradient>
<linearGradient id="paint59_linear" x1="194.192" y1="42.0522" x2="194.192" y2="890.536" gradientUnits="userSpaceOnUse">
<stop stop-color="white"/>
<stop offset="1" stop-color="white" stop-opacity="0"/>
</linearGradient>
<linearGradient id="paint60_linear" x1="194.192" y1="42.0522" x2="194.192" y2="890.536" gradientUnits="userSpaceOnUse">
<stop stop-color="white"/>
<stop offset="1" stop-color="white" stop-opacity="0"/>
</linearGradient>
<linearGradient id="paint61_linear" x1="194.192" y1="42.0522" x2="194.192" y2="890.536" gradientUnits="userSpaceOnUse">
<stop stop-color="white"/>
<stop offset="1" stop-color="white" stop-opacity="0"/>
</linearGradient>
<linearGradient id="paint62_linear" x1="194.192" y1="42.0522" x2="194.192" y2="890.536" gradientUnits="userSpaceOnUse">
<stop stop-color="white"/>
<stop offset="1" stop-color="white" stop-opacity="0"/>
</linearGradient>
<linearGradient id="paint63_linear" x1="194.192" y1="42.0522" x2="194.192" y2="890.536" gradientUnits="userSpaceOnUse">
<stop stop-color="white"/>
<stop offset="1" stop-color="white" stop-opacity="0"/>
</linearGradient>
<linearGradient id="paint64_linear" x1="194.192" y1="42.0522" x2="194.192" y2="890.536" gradientUnits="userSpaceOnUse">
<stop stop-color="white"/>
<stop offset="1" stop-color="white" stop-opacity="0"/>
</linearGradient>
<linearGradient id="paint65_linear" x1="194.192" y1="42.0522" x2="194.192" y2="890.536" gradientUnits="userSpaceOnUse">
<stop stop-color="white"/>
<stop offset="1" stop-color="white" stop-opacity="0"/>
</linearGradient>
<linearGradient id="paint66_linear" x1="194.192" y1="42.0522" x2="194.192" y2="890.536" gradientUnits="userSpaceOnUse">
<stop stop-color="white"/>
<stop offset="1" stop-color="white" stop-opacity="0"/>
</linearGradient>
<linearGradient id="paint67_linear" x1="194.192" y1="42.0522" x2="194.192" y2="890.536" gradientUnits="userSpaceOnUse">
<stop stop-color="white"/>
<stop offset="1" stop-color="white" stop-opacity="0"/>
</linearGradient>
<linearGradient id="paint68_linear" x1="194.192" y1="42.0522" x2="194.192" y2="890.536" gradientUnits="userSpaceOnUse">
<stop stop-color="white"/>
<stop offset="1" stop-color="white" stop-opacity="0"/>
</linearGradient>
<linearGradient id="paint69_linear" x1="194.192" y1="42.0522" x2="194.192" y2="890.536" gradientUnits="userSpaceOnUse">
<stop stop-color="white"/>
<stop offset="1" stop-color="white" stop-opacity="0"/>
</linearGradient>
<linearGradient id="paint70_linear" x1="194.192" y1="42.0522" x2="194.192" y2="890.536" gradientUnits="userSpaceOnUse">
<stop stop-color="white"/>
<stop offset="1" stop-color="white" stop-opacity="0"/>
</linearGradient>
<linearGradient id="paint71_linear" x1="194.192" y1="42.0522" x2="194.192" y2="890.536" gradientUnits="userSpaceOnUse">
<stop stop-color="white"/>
<stop offset="1" stop-color="white" stop-opacity="0"/>
</linearGradient>
<linearGradient id="paint72_linear" x1="194.192" y1="42.0522" x2="194.192" y2="890.536" gradientUnits="userSpaceOnUse">
<stop stop-color="white"/>
<stop offset="1" stop-color="white" stop-opacity="0"/>
</linearGradient>
<linearGradient id="paint73_linear" x1="194.192" y1="42.0522" x2="194.192" y2="890.536" gradientUnits="userSpaceOnUse">
<stop stop-color="white"/>
<stop offset="1" stop-color="white" stop-opacity="0"/>
</linearGradient>
<linearGradient id="paint74_linear" x1="194.192" y1="42.0522" x2="194.192" y2="890.536" gradientUnits="userSpaceOnUse">
<stop stop-color="white"/>
<stop offset="1" stop-color="white" stop-opacity="0"/>
</linearGradient>
<linearGradient id="paint75_linear" x1="194.192" y1="42.0522" x2="194.192" y2="890.536" gradientUnits="userSpaceOnUse">
<stop stop-color="white"/>
<stop offset="1" stop-color="white" stop-opacity="0"/>
</linearGradient>
<linearGradient id="paint76_linear" x1="194.192" y1="42.0522" x2="194.192" y2="890.536" gradientUnits="userSpaceOnUse">
<stop stop-color="white"/>
<stop offset="1" stop-color="white" stop-opacity="0"/>
</linearGradient>
<linearGradient id="paint77_linear" x1="194.192" y1="42.0522" x2="194.192" y2="890.536" gradientUnits="userSpaceOnUse">
<stop stop-color="white"/>
<stop offset="1" stop-color="white" stop-opacity="0"/>
</linearGradient>
<linearGradient id="paint78_linear" x1="194.192" y1="42.0522" x2="194.192" y2="890.536" gradientUnits="userSpaceOnUse">
<stop stop-color="white"/>
<stop offset="1" stop-color="white" stop-opacity="0"/>
</linearGradient>
<linearGradient id="paint79_linear" x1="194.192" y1="42.0522" x2="194.192" y2="890.536" gradientUnits="userSpaceOnUse">
<stop stop-color="white"/>
<stop offset="1" stop-color="white" stop-opacity="0"/>
</linearGradient>
<linearGradient id="paint80_linear" x1="194.192" y1="42.0522" x2="194.192" y2="890.536" gradientUnits="userSpaceOnUse">
<stop stop-color="white"/>
<stop offset="1" stop-color="white" stop-opacity="0"/>
</linearGradient>
<linearGradient id="paint81_linear" x1="194.192" y1="42.0522" x2="194.192" y2="890.536" gradientUnits="userSpaceOnUse">
<stop stop-color="white"/>
<stop offset="1" stop-color="white" stop-opacity="0"/>
</linearGradient>
<linearGradient id="paint82_linear" x1="194.192" y1="42.0522" x2="194.192" y2="890.536" gradientUnits="userSpaceOnUse">
<stop stop-color="white"/>
<stop offset="1" stop-color="white" stop-opacity="0"/>
</linearGradient>
<linearGradient id="paint83_linear" x1="194.192" y1="42.0522" x2="194.192" y2="890.536" gradientUnits="userSpaceOnUse">
<stop stop-color="white"/>
<stop offset="1" stop-color="white" stop-opacity="0"/>
</linearGradient>
<linearGradient id="paint84_linear" x1="194.192" y1="42.0522" x2="194.192" y2="890.536" gradientUnits="userSpaceOnUse">
<stop stop-color="white"/>
<stop offset="1" stop-color="white" stop-opacity="0"/>
</linearGradient>
<linearGradient id="paint85_linear" x1="-72.2282" y1="380.197" x2="63.321" y2="514.601" gradientUnits="userSpaceOnUse">
<stop stop-color="white" stop-opacity="0"/>
<stop offset="0.492" stop-color="white"/>
<stop offset="1" stop-color="white" stop-opacity="0"/>
</linearGradient>
<linearGradient id="paint86_linear" x1="-5.01585" y1="313.043" x2="-5.01585" y2="582.906" gradientUnits="userSpaceOnUse">
<stop stop-color="white" stop-opacity="0"/>
<stop offset="0.492" stop-color="white"/>
<stop offset="1" stop-color="white" stop-opacity="0"/>
</linearGradient>
<linearGradient id="paint87_linear" x1="-134.65" y1="317.244" x2="126.801" y2="576.486" gradientUnits="userSpaceOnUse">
<stop stop-color="white" stop-opacity="0"/>
<stop offset="0.492" stop-color="white"/>
<stop offset="1" stop-color="white" stop-opacity="0"/>
</linearGradient>
<linearGradient id="paint88_linear" x1="-168.293" y1="283.314" x2="161.016" y2="609.84" gradientUnits="userSpaceOnUse">
<stop stop-color="white" stop-opacity="0"/>
<stop offset="0.492" stop-color="white"/>
<stop offset="1" stop-color="white" stop-opacity="0"/>
</linearGradient>
<linearGradient id="paint89_linear" x1="-5.01602" y1="143.206" x2="-5.01602" y2="752.743" gradientUnits="userSpaceOnUse">
<stop stop-color="white" stop-opacity="0"/>
<stop offset="0.492" stop-color="white"/>
<stop offset="1" stop-color="white" stop-opacity="0"/>
</linearGradient>
<linearGradient id="paint90_linear" x1="-5.01585" y1="35.4401" x2="-5.01585" y2="860.508" gradientUnits="userSpaceOnUse">
<stop stop-color="white" stop-opacity="0"/>
<stop offset="0.492" stop-color="white"/>
<stop offset="1" stop-color="white" stop-opacity="0"/>
</linearGradient>
<linearGradient id="paint91_linear" x1="-5.01584" y1="-53.6991" x2="-5.01584" y2="949.648" gradientUnits="userSpaceOnUse">
<stop stop-color="white" stop-opacity="0"/>
<stop offset="0.492" stop-color="white"/>
<stop offset="1" stop-color="white" stop-opacity="0"/>
</linearGradient>
<linearGradient id="paint92_linear" x1="-5.01573" y1="-112.511" x2="-5.01573" y2="1008.46" gradientUnits="userSpaceOnUse">
<stop stop-color="white" stop-opacity="0"/>
<stop offset="0.492" stop-color="white"/>
<stop offset="1" stop-color="white" stop-opacity="0"/>
</linearGradient>
<linearGradient id="paint93_linear" x1="-5.09545" y1="-152.493" x2="-5.09545" y2="1048.44" gradientUnits="userSpaceOnUse">
<stop offset="0.1277" stop-color="white" stop-opacity="0"/>
<stop offset="0.492" stop-color="white"/>
<stop offset="0.827" stop-color="white" stop-opacity="0"/>
</linearGradient>
<linearGradient id="paint94_linear" x1="161.173" y1="473.975" x2="184.197" y2="501.667" gradientUnits="userSpaceOnUse">
<stop stop-color="#7FC8EF"/>
<stop offset="0.891" stop-color="#5895FF"/>
</linearGradient>
<linearGradient id="paint95_linear" x1="152.961" y1="466.748" x2="160.733" y2="466.748" gradientUnits="userSpaceOnUse">
<stop stop-color="#FDFFF0"/>
<stop offset="1" stop-color="#FDFFCC"/>
</linearGradient>
<linearGradient id="paint96_linear" x1="99.7641" y1="249.485" x2="123.135" y2="244.007" gradientUnits="userSpaceOnUse">
<stop stop-color="#FFA000"/>
<stop offset="1" stop-color="#FF3D00"/>
</linearGradient>
<linearGradient id="paint97_linear" x1="64.8186" y1="563.72" x2="88.2244" y2="542.779" gradientUnits="userSpaceOnUse">
<stop stop-color="#FFD0A6"/>
<stop offset="0.993" stop-color="#FF77A6"/>
</linearGradient>
<linearGradient id="paint98_linear" x1="27.3068" y1="361.522" x2="48.2691" y2="361.522" gradientUnits="userSpaceOnUse">
<stop stop-color="#6F88A3"/>
<stop offset="0.994" stop-color="#49568B"/>
</linearGradient>
<linearGradient id="paint99_linear" x1="351.383" y1="594.486" x2="402.28" y2="581.739" gradientUnits="userSpaceOnUse">
<stop offset="0.285" stop-color="#FCBE33"/>
<stop offset="0.96" stop-color="#FC8A33"/>
</linearGradient>
<linearGradient id="paint100_linear" x1="330.648" y1="587.455" x2="421.093" y2="587.455" gradientUnits="userSpaceOnUse">
<stop stop-color="#FFE1A4"/>
<stop offset="1" stop-color="#FEB86F"/>
</linearGradient>
<linearGradient id="paint101_linear" x1="198.572" y1="639.825" x2="275.66" y2="621.756" gradientUnits="userSpaceOnUse">
<stop stop-color="#D1AE88"/>
<stop offset="1" stop-color="#BC8867"/>
</linearGradient>
<linearGradient id="paint102_linear" x1="-56.3632" y1="494.735" x2="32.8284" y2="406.298" gradientUnits="userSpaceOnUse">
<stop stop-color="#FFD000"/>
<stop offset="1" stop-color="#C88500"/>
</linearGradient>
<linearGradient id="paint103_linear" x1="338.509" y1="110.632" x2="384.193" y2="110.632" gradientUnits="userSpaceOnUse">
<stop stop-color="#71FFFB"/>
<stop offset="0.997" stop-color="#0068FB"/>
</linearGradient>
</defs>
</svg>
