<svg width="414" height="896" viewBox="0 0 414 896" fill="none" xmlns="http://www.w3.org/2000/svg">
<g style="mix-blend-mode:lighten" opacity="0.8" filter="url(#filter0_f)">
<path d="M-56.0781 729.308C-56.0781 725.469 -62.0284 725.469 -62.0284 729.308C-62.0284 733.147 -56.0781 733.147 -56.0781 729.308Z" fill="url(#paint0_linear)"/>
<path d="M64.9514 405.773C64.9514 401.935 59.001 401.935 59.001 405.773C59.001 409.612 64.9514 409.612 64.9514 405.773Z" fill="url(#paint1_linear)"/>
<path d="M-68.9307 410.332C-68.9307 406.493 -74.881 406.493 -74.881 410.332C-74.881 414.171 -68.9307 414.171 -68.9307 410.332Z" fill="url(#paint2_linear)"/>
<path d="M60.4291 602.03C60.4291 598.191 54.4788 598.191 54.4788 602.03C54.4788 605.868 60.4291 605.868 60.4291 602.03Z" fill="url(#paint3_linear)"/>
<path d="M-35.0139 579.957C-35.0139 576.118 -40.9643 576.118 -40.9643 579.957C-40.9643 583.916 -35.0139 583.916 -35.0139 579.957Z" fill="url(#paint4_linear)"/>
<path d="M79.2321 864.864C78.7561 864.864 78.2801 864.864 77.685 864.864C76.138 864.864 74.5909 866.184 74.7099 867.863C74.8289 869.542 76.019 870.862 77.685 870.862C78.1611 870.862 78.6371 870.862 79.2321 870.862C80.7792 870.862 82.3263 869.542 82.2073 867.863C82.0883 866.303 80.8982 864.864 79.2321 864.864Z" fill="url(#paint5_linear)"/>
<path d="M-67.1457 873.381C-67.6217 873.861 -68.0977 874.341 -68.6927 874.941C-69.7638 876.02 -69.8828 878.06 -68.6927 879.139C-67.5027 880.219 -65.7176 880.339 -64.5275 879.139C-64.0515 878.659 -63.5755 878.18 -62.9804 877.58C-61.9094 876.5 -61.7904 874.461 -62.9804 873.381C-64.1705 872.301 -65.9556 872.182 -67.1457 873.381Z" fill="url(#paint6_linear)"/>
<path d="M38.651 786.05C38.651 782.211 32.7006 782.211 32.7006 786.05C32.7006 789.888 38.651 789.888 38.651 786.05Z" fill="url(#paint7_linear)"/>
<path d="M-50.1277 266.379C-50.1277 262.54 -56.078 262.54 -56.078 266.379C-56.078 270.218 -50.1277 270.218 -50.1277 266.379Z" fill="url(#paint8_linear)"/>
<path d="M94.2269 183.006C94.2269 179.167 88.2766 179.167 88.2766 183.006C88.2766 186.845 94.2269 186.845 94.2269 183.006Z" fill="url(#paint9_linear)"/>
<path d="M134.808 254.263C134.808 250.424 128.858 250.424 128.858 254.263C128.858 258.102 134.808 258.102 134.808 254.263Z" fill="url(#paint10_linear)"/>
<path d="M261.074 372.425C261.074 368.586 255.123 368.586 255.123 372.425C255.123 376.263 261.074 376.263 261.074 372.425Z" fill="url(#paint11_linear)"/>
<path d="M119.813 499.703C119.813 495.864 113.863 495.864 113.863 499.703C113.863 503.542 119.813 503.542 119.813 499.703Z" fill="url(#paint12_linear)"/>
<path d="M273.093 513.378C273.093 509.54 267.143 509.54 267.143 513.378C267.143 517.217 273.093 517.217 273.093 513.378Z" fill="url(#paint13_linear)"/>
<path d="M243.104 658.771C243.104 654.932 237.153 654.932 237.153 658.771C237.153 662.61 243.104 662.61 243.104 658.771Z" fill="url(#paint14_linear)"/>
<path d="M227.99 728.468C227.99 724.63 222.04 724.63 222.04 728.468C222.04 732.307 227.99 732.307 227.99 728.468Z" fill="url(#paint15_linear)"/>
<path d="M291.182 795.167C291.182 791.328 285.232 791.328 285.232 795.167C285.232 799.005 291.182 799.005 291.182 795.167Z" fill="url(#paint16_linear)"/>
<path d="M265.596 881.539C265.596 877.7 259.646 877.7 259.646 881.539C259.646 885.377 265.596 885.377 265.596 881.539Z" fill="url(#paint17_linear)"/>
<path d="M400.906 870.982C400.906 867.143 394.956 867.143 394.956 870.982C394.956 874.821 400.906 874.821 400.906 870.982Z" fill="url(#paint18_linear)"/>
<path d="M370.798 661.77C370.798 657.931 364.847 657.931 364.847 661.77C364.847 665.729 370.798 665.729 370.798 661.77Z" fill="url(#paint19_linear)"/>
<path d="M444.463 433.005C444.463 429.166 438.512 429.166 438.512 433.005C438.512 436.843 444.463 436.843 444.463 433.005Z" fill="url(#paint20_linear)"/>
<path d="M337.714 555.725C337.714 551.886 331.763 551.886 331.763 555.725C331.763 559.563 337.714 559.563 337.714 555.725Z" fill="url(#paint21_linear)"/>
<path d="M401.858 327.559C402.334 328.039 402.81 328.519 403.405 329.118C404.476 330.198 406.5 330.318 407.571 329.118C408.642 327.919 408.761 326.119 407.571 324.92C407.095 324.44 406.618 323.96 406.023 323.36C404.952 322.281 402.929 322.161 401.858 323.36C400.787 324.56 400.668 326.359 401.858 327.559Z" fill="url(#paint22_linear)"/>
<path d="M354.256 229.911C354.256 226.072 348.305 226.072 348.305 229.911C348.305 233.87 354.256 233.87 354.256 229.911Z" fill="url(#paint23_linear)"/>
<path d="M237.035 186.005C237.035 182.166 231.084 182.166 231.084 186.005C231.084 189.844 237.035 189.844 237.035 186.005Z" fill="url(#paint24_linear)"/>
<path d="M443.034 63.2853C443.034 59.4466 437.084 59.4466 437.084 63.2853C437.084 67.1241 443.034 67.1241 443.034 63.2853Z" fill="url(#paint25_linear)"/>
<path d="M279.163 55.7274C279.163 51.8886 273.212 51.8886 273.212 55.7274C273.212 59.5661 279.163 59.5661 279.163 55.7274Z" fill="url(#paint26_linear)"/>
<path d="M62.6902 49.6095C62.6902 45.7708 56.7399 45.7708 56.7399 49.6095C56.7399 53.4483 62.6902 53.5682 62.6902 49.6095Z" fill="url(#paint27_linear)"/>
<path d="M-66.6696 58.7266C-66.6696 54.8879 -72.6199 54.8879 -72.6199 58.7266C-72.6199 62.5654 -66.6696 62.5654 -66.6696 58.7266Z" fill="url(#paint28_linear)"/>
<path d="M-57.6251 145.098C-57.6251 141.26 -63.5754 141.26 -63.5754 145.098C-63.5754 148.937 -57.6251 148.937 -57.6251 145.098Z" fill="url(#paint29_linear)"/>
<path d="M459.457 666.329C459.457 662.49 453.507 662.49 453.507 666.329C453.507 670.287 459.457 670.287 459.457 666.329Z" fill="url(#paint30_linear)"/>
<path d="M411.379 766.376C411.379 762.537 405.428 762.537 405.428 766.376C405.428 770.215 411.379 770.215 411.379 766.376Z" fill="url(#paint31_linear)"/>
<path d="M-17.044 872.422C-17.044 870.502 -20.0192 870.502 -20.0192 872.422C-20.0192 874.341 -17.044 874.341 -17.044 872.422Z" fill="url(#paint32_linear)"/>
<path d="M-74.167 799.725C-74.167 797.806 -77.1422 797.806 -77.1422 799.725C-77.1422 801.645 -74.167 801.645 -74.167 799.725Z" fill="url(#paint33_linear)"/>
<path d="M-62.1474 652.773C-62.1474 650.854 -65.1226 650.854 -65.1226 652.773C-65.1226 654.693 -62.1474 654.693 -62.1474 652.773Z" fill="url(#paint34_linear)"/>
<path d="M4.0201 720.911C4.0201 718.992 1.04494 718.992 1.04494 720.911C1.04494 722.83 4.0201 722.83 4.0201 720.911Z" fill="url(#paint35_linear)"/>
<path d="M-36.561 323.96C-36.561 322.041 -39.5362 322.041 -39.5362 323.96C-39.5362 325.88 -36.561 325.88 -36.561 323.96Z" fill="url(#paint36_linear)"/>
<path d="M-57.6252 490.586C-57.6252 488.667 -60.6004 488.667 -60.6004 490.586C-60.6004 492.505 -57.6252 492.505 -57.6252 490.586Z" fill="url(#paint37_linear)"/>
<path d="M-45.6055 411.772C-45.6055 409.852 -48.5806 409.852 -48.5806 411.772C-48.5806 413.691 -45.6055 413.691 -45.6055 411.772Z" fill="url(#paint38_linear)"/>
<path d="M-35.0139 254.263C-35.0139 252.344 -37.9891 252.344 -37.9891 254.263C-37.9891 256.182 -35.0139 256.182 -35.0139 254.263Z" fill="url(#paint39_linear)"/>
<path d="M100.296 237.588C100.296 235.669 97.3211 235.669 97.3211 237.588C97.3211 239.508 100.296 239.508 100.296 237.588Z" fill="url(#paint40_linear)"/>
<path d="M137.783 228.471C137.783 226.552 134.808 226.552 134.808 228.471C134.808 230.391 137.783 230.391 137.783 228.471Z" fill="url(#paint41_linear)"/>
<path d="M28.0593 207.238C28.0593 205.319 25.0842 205.319 25.0842 207.238C25.0842 209.158 28.0593 209.158 28.0593 207.238Z" fill="url(#paint42_linear)"/>
<path d="M46.1483 176.888C46.1483 174.969 43.1732 174.969 43.1732 176.888C43.1732 178.807 46.1483 178.807 46.1483 176.888Z" fill="url(#paint43_linear)"/>
<path d="M44.6013 72.4022C44.6013 70.4828 41.6261 70.4828 41.6261 72.4022C41.6261 74.3215 44.6013 74.3215 44.6013 72.4022Z" fill="url(#paint44_linear)"/>
<path d="M112.316 42.0522C111.84 42.0522 111.364 42.0522 110.769 42.0522C108.865 42.0522 108.865 45.0512 110.769 45.0512C111.245 45.0512 111.721 45.0512 112.316 45.0512C114.22 45.0512 114.22 42.0522 112.316 42.0522Z" fill="url(#paint45_linear)"/>
<path d="M-42.5114 58.7265C-42.5114 56.8072 -45.4865 56.8072 -45.4865 58.7265C-45.4865 60.6459 -42.5114 60.6459 -42.5114 58.7265Z" fill="url(#paint46_linear)"/>
<path d="M270.118 155.775C270.118 153.856 267.143 153.856 267.143 155.775C267.143 157.694 270.118 157.694 270.118 155.775Z" fill="url(#paint47_linear)"/>
<path d="M264.049 187.565C264.049 185.645 261.074 185.645 261.074 187.565C261.074 189.484 264.049 189.484 264.049 187.565Z" fill="url(#paint48_linear)"/>
<path d="M255.123 58.7265C255.123 56.8072 252.148 56.8072 252.148 58.7265C252.148 60.6459 255.123 60.6459 255.123 58.7265Z" fill="url(#paint49_linear)"/>
<path d="M327.241 249.705C327.241 247.785 324.266 247.785 324.266 249.705C324.266 251.624 327.241 251.624 327.241 249.705Z" fill="url(#paint50_linear)"/>
<path d="M346.758 264.82C346.758 262.9 343.783 262.9 343.783 264.82C343.783 266.739 346.758 266.739 346.758 264.82Z" fill="url(#paint51_linear)"/>
<path d="M256.552 404.214C256.552 402.295 253.576 402.295 253.576 404.214C253.576 406.133 256.552 406.133 256.552 404.214Z" fill="url(#paint52_linear)"/>
<path d="M280.591 372.424C280.591 370.505 277.616 370.505 277.616 372.424C277.616 374.344 280.591 374.344 280.591 372.424Z" fill="url(#paint53_linear)"/>
<path d="M235.606 548.167C236.082 548.167 236.558 548.167 237.153 548.167C239.058 548.167 239.058 545.168 237.153 545.168C236.677 545.168 236.201 545.168 235.606 545.168C233.702 545.168 233.583 548.167 235.606 548.167Z" fill="url(#paint54_linear)"/>
<path d="M244.532 504.261C244.532 502.342 241.557 502.342 241.557 504.261C241.557 506.181 244.532 506.181 244.532 504.261Z" fill="url(#paint55_linear)"/>
<path d="M86.7295 584.515C86.7295 582.596 83.7544 582.596 83.7544 584.515C83.7544 586.435 86.7295 586.435 86.7295 584.515Z" fill="url(#paint56_linear)"/>
<path d="M83.7544 749.701C83.7544 747.782 80.7792 747.782 80.7792 749.701C80.7792 751.621 83.7544 751.621 83.7544 749.701Z" fill="url(#paint57_linear)"/>
<path d="M46.1483 728.468C46.1483 726.549 43.1732 726.549 43.1732 728.468C43.1732 730.388 46.1483 730.388 46.1483 728.468Z" fill="url(#paint58_linear)"/>
<path d="M46.1483 863.304C46.1483 861.385 43.1732 861.385 43.1732 863.304C43.1732 865.344 46.1483 865.344 46.1483 863.304Z" fill="url(#paint59_linear)"/>
<path d="M282.138 764.817C282.138 762.897 279.163 762.897 279.163 764.817C279.163 766.736 282.138 766.856 282.138 764.817Z" fill="url(#paint60_linear)"/>
<path d="M295.705 854.307C295.705 852.388 292.729 852.388 292.729 854.307C292.729 856.227 295.705 856.227 295.705 854.307Z" fill="url(#paint61_linear)"/>
<path d="M379.842 873.981C379.842 872.062 376.867 872.062 376.867 873.981C376.867 875.9 379.842 875.9 379.842 873.981Z" fill="url(#paint62_linear)"/>
<path d="M427.921 834.514C427.921 832.594 424.945 832.594 424.945 834.514C424.945 836.553 427.921 836.553 427.921 834.514Z" fill="url(#paint63_linear)"/>
<path d="M470.049 889.096C470.049 887.177 467.074 887.177 467.074 889.096C467.074 891.015 470.049 891.015 470.049 889.096Z" fill="url(#paint64_linear)"/>
<path d="M393.409 714.913C393.409 712.993 390.434 712.993 390.434 714.913C390.434 716.832 393.409 716.832 393.409 714.913Z" fill="url(#paint65_linear)"/>
<path d="M367.822 776.933C367.822 775.013 364.847 775.013 364.847 776.933C364.847 778.972 367.822 778.972 367.822 776.933Z" fill="url(#paint66_linear)"/>
<path d="M465.527 625.422C465.527 623.503 462.551 623.503 462.551 625.422C462.551 627.341 465.527 627.341 465.527 625.422Z" fill="url(#paint67_linear)"/>
<path d="M354.256 528.494C354.256 526.574 351.281 526.574 351.281 528.494C351.281 530.413 354.256 530.413 354.256 528.494Z" fill="url(#paint68_linear)"/>
<path d="M453.507 470.912C453.507 468.993 450.532 468.993 450.532 470.912C450.532 472.832 453.507 472.832 453.507 470.912Z" fill="url(#paint69_linear)"/>
<path d="M403.881 433.005C403.881 431.085 400.906 431.085 400.906 433.005C400.906 434.924 403.881 434.924 403.881 433.005Z" fill="url(#paint70_linear)"/>
<path d="M427.921 310.285C427.921 308.365 424.945 308.365 424.945 310.285C424.945 312.204 427.921 312.204 427.921 310.285Z" fill="url(#paint71_linear)"/>
<path d="M255.123 279.935C255.123 278.015 252.148 278.015 252.148 279.935C252.148 281.854 255.123 281.854 255.123 279.935Z" fill="url(#paint72_linear)"/>
<path d="M334.739 319.402C334.739 318.922 334.739 318.442 334.739 317.842C334.739 315.923 331.763 315.923 331.763 317.842C331.763 318.322 331.763 318.802 331.763 319.402C331.763 321.321 334.739 321.321 334.739 319.402Z" fill="url(#paint73_linear)"/>
<path d="M348.305 143.539C348.305 141.62 345.33 141.62 345.33 143.539C345.33 145.578 348.305 145.578 348.305 143.539Z" fill="url(#paint74_linear)"/>
<path d="M453.507 223.913C453.507 221.993 450.532 221.993 450.532 223.913C450.532 225.832 453.507 225.832 453.507 223.913Z" fill="url(#paint75_linear)"/>
<path d="M467.074 126.984C467.074 125.065 464.099 125.065 464.099 126.984C464.099 128.904 467.074 128.904 467.074 126.984Z" fill="url(#paint76_linear)"/>
<path d="M429.468 81.5191C429.468 79.5998 426.493 79.5998 426.493 81.5191C426.493 83.4385 429.468 83.4385 429.468 81.5191Z" fill="url(#paint77_linear)"/>
<path d="M402.453 55.7275C402.453 53.8081 399.478 53.8081 399.478 55.7275C399.478 57.6468 402.453 57.6468 402.453 55.7275Z" fill="url(#paint78_linear)"/>
<path d="M10.0894 393.657C10.0894 391.738 7.11427 391.738 7.11427 393.657C7.11427 395.577 10.0894 395.577 10.0894 393.657Z" fill="url(#paint79_linear)"/>
<path d="M-78.6893 208.798C-78.6893 206.878 -81.6644 206.878 -81.6644 208.798C-81.6644 210.717 -78.6893 210.717 -78.6893 208.798Z" fill="url(#paint80_linear)"/>
<path d="M8.54236 286.053C8.54236 284.133 5.5672 284.133 5.5672 286.053C5.5672 287.972 8.54236 287.972 8.54236 286.053Z" fill="url(#paint81_linear)"/>
<path d="M5.56716 651.214C5.56716 649.294 2.592 649.294 2.592 651.214C2.592 653.133 5.56716 653.133 5.56716 651.214Z" fill="url(#paint82_linear)"/>
<path d="M313.675 613.306C313.675 611.387 310.699 611.387 310.699 613.306C310.699 615.225 313.675 615.225 313.675 613.306Z" fill="url(#paint83_linear)"/>
<path d="M273.093 660.331C273.093 658.411 270.118 658.411 270.118 660.331C270.118 662.25 273.093 662.25 273.093 660.331Z" fill="url(#paint84_linear)"/>
</g>
<g style="mix-blend-mode:multiply" opacity="0.6">
<rect x="-600" y="-152" width="1200" height="1200" fill="black"/>
</g>
<defs>
<filter id="filter0_f" x="-83.6644" y="40.0522" width="555.713" height="852.483" filterUnits="userSpaceOnUse" color-interpolation-filters="sRGB">
<feFlood flood-opacity="0" result="BackgroundImageFix"/>
<feBlend mode="normal" in="SourceGraphic" in2="BackgroundImageFix" result="shape"/>
<feGaussianBlur stdDeviation="1" result="effect1_foregroundBlur"/>
</filter>
<linearGradient id="paint0_linear" x1="194.192" y1="42.0522" x2="194.192" y2="890.536" gradientUnits="userSpaceOnUse">
<stop stop-color="white"/>
<stop offset="1" stop-color="white" stop-opacity="0"/>
</linearGradient>
<linearGradient id="paint1_linear" x1="194.192" y1="42.0522" x2="194.192" y2="890.536" gradientUnits="userSpaceOnUse">
<stop stop-color="white"/>
<stop offset="1" stop-color="white" stop-opacity="0"/>
</linearGradient>
<linearGradient id="paint2_linear" x1="194.192" y1="42.0522" x2="194.192" y2="890.536" gradientUnits="userSpaceOnUse">
<stop stop-color="white"/>
<stop offset="1" stop-color="white" stop-opacity="0"/>
</linearGradient>
<linearGradient id="paint3_linear" x1="194.192" y1="42.0522" x2="194.192" y2="890.536" gradientUnits="userSpaceOnUse">
<stop stop-color="white"/>
<stop offset="1" stop-color="white" stop-opacity="0"/>
</linearGradient>
<linearGradient id="paint4_linear" x1="194.192" y1="42.0522" x2="194.192" y2="890.536" gradientUnits="userSpaceOnUse">
<stop stop-color="white"/>
<stop offset="1" stop-color="white" stop-opacity="0"/>
</linearGradient>
<linearGradient id="paint5_linear" x1="194.192" y1="42.0522" x2="194.192" y2="890.536" gradientUnits="userSpaceOnUse">
<stop stop-color="white"/>
<stop offset="1" stop-color="white" stop-opacity="0"/>
</linearGradient>
<linearGradient id="paint6_linear" x1="194.192" y1="42.0522" x2="194.192" y2="890.536" gradientUnits="userSpaceOnUse">
<stop stop-color="white"/>
<stop offset="1" stop-color="white" stop-opacity="0"/>
</linearGradient>
<linearGradient id="paint7_linear" x1="194.192" y1="42.0522" x2="194.192" y2="890.536" gradientUnits="userSpaceOnUse">
<stop stop-color="white"/>
<stop offset="1" stop-color="white" stop-opacity="0"/>
</linearGradient>
<linearGradient id="paint8_linear" x1="194.192" y1="42.0522" x2="194.192" y2="890.536" gradientUnits="userSpaceOnUse">
<stop stop-color="white"/>
<stop offset="1" stop-color="white" stop-opacity="0"/>
</linearGradient>
<linearGradient id="paint9_linear" x1="194.192" y1="42.0522" x2="194.192" y2="890.536" gradientUnits="userSpaceOnUse">
<stop stop-color="white"/>
<stop offset="1" stop-color="white" stop-opacity="0"/>
</linearGradient>
<linearGradient id="paint10_linear" x1="194.192" y1="42.0522" x2="194.192" y2="890.536" gradientUnits="userSpaceOnUse">
<stop stop-color="white"/>
<stop offset="1" stop-color="white" stop-opacity="0"/>
</linearGradient>
<linearGradient id="paint11_linear" x1="194.192" y1="42.0522" x2="194.192" y2="890.536" gradientUnits="userSpaceOnUse">
<stop stop-color="white"/>
<stop offset="1" stop-color="white" stop-opacity="0"/>
</linearGradient>
<linearGradient id="paint12_linear" x1="194.192" y1="42.0522" x2="194.192" y2="890.536" gradientUnits="userSpaceOnUse">
<stop stop-color="white"/>
<stop offset="1" stop-color="white" stop-opacity="0"/>
</linearGradient>
<linearGradient id="paint13_linear" x1="194.192" y1="42.0522" x2="194.192" y2="890.536" gradientUnits="userSpaceOnUse">
<stop stop-color="white"/>
<stop offset="1" stop-color="white" stop-opacity="0"/>
</linearGradient>
<linearGradient id="paint14_linear" x1="194.192" y1="42.0522" x2="194.192" y2="890.536" gradientUnits="userSpaceOnUse">
<stop stop-color="white"/>
<stop offset="1" stop-color="white" stop-opacity="0"/>
</linearGradient>
<linearGradient id="paint15_linear" x1="194.192" y1="42.0522" x2="194.192" y2="890.536" gradientUnits="userSpaceOnUse">
<stop stop-color="white"/>
<stop offset="1" stop-color="white" stop-opacity="0"/>
</linearGradient>
<linearGradient id="paint16_linear" x1="194.192" y1="42.0522" x2="194.192" y2="890.536" gradientUnits="userSpaceOnUse">
<stop stop-color="white"/>
<stop offset="1" stop-color="white" stop-opacity="0"/>
</linearGradient>
<linearGradient id="paint17_linear" x1="194.192" y1="42.0522" x2="194.192" y2="890.536" gradientUnits="userSpaceOnUse">
<stop stop-color="white"/>
<stop offset="1" stop-color="white" stop-opacity="0"/>
</linearGradient>
<linearGradient id="paint18_linear" x1="194.192" y1="42.0522" x2="194.192" y2="890.536" gradientUnits="userSpaceOnUse">
<stop stop-color="white"/>
<stop offset="1" stop-color="white" stop-opacity="0"/>
</linearGradient>
<linearGradient id="paint19_linear" x1="194.192" y1="42.0522" x2="194.192" y2="890.536" gradientUnits="userSpaceOnUse">
<stop stop-color="white"/>
<stop offset="1" stop-color="white" stop-opacity="0"/>
</linearGradient>
<linearGradient id="paint20_linear" x1="194.192" y1="42.0522" x2="194.192" y2="890.536" gradientUnits="userSpaceOnUse">
<stop stop-color="white"/>
<stop offset="1" stop-color="white" stop-opacity="0"/>
</linearGradient>
<linearGradient id="paint21_linear" x1="194.192" y1="42.0522" x2="194.192" y2="890.536" gradientUnits="userSpaceOnUse">
<stop stop-color="white"/>
<stop offset="1" stop-color="white" stop-opacity="0"/>
</linearGradient>
<linearGradient id="paint22_linear" x1="194.192" y1="42.0522" x2="194.192" y2="890.536" gradientUnits="userSpaceOnUse">
<stop stop-color="white"/>
<stop offset="1" stop-color="white" stop-opacity="0"/>
</linearGradient>
<linearGradient id="paint23_linear" x1="194.192" y1="42.0522" x2="194.192" y2="890.536" gradientUnits="userSpaceOnUse">
<stop stop-color="white"/>
<stop offset="1" stop-color="white" stop-opacity="0"/>
</linearGradient>
<linearGradient id="paint24_linear" x1="194.192" y1="42.0522" x2="194.192" y2="890.536" gradientUnits="userSpaceOnUse">
<stop stop-color="white"/>
<stop offset="1" stop-color="white" stop-opacity="0"/>
</linearGradient>
<linearGradient id="paint25_linear" x1="194.192" y1="42.0522" x2="194.192" y2="890.536" gradientUnits="userSpaceOnUse">
<stop stop-color="white"/>
<stop offset="1" stop-color="white" stop-opacity="0"/>
</linearGradient>
<linearGradient id="paint26_linear" x1="194.192" y1="42.0522" x2="194.192" y2="890.536" gradientUnits="userSpaceOnUse">
<stop stop-color="white"/>
<stop offset="1" stop-color="white" stop-opacity="0"/>
</linearGradient>
<linearGradient id="paint27_linear" x1="194.192" y1="42.0522" x2="194.192" y2="890.536" gradientUnits="userSpaceOnUse">
<stop stop-color="white"/>
<stop offset="1" stop-color="white" stop-opacity="0"/>
</linearGradient>
<linearGradient id="paint28_linear" x1="194.192" y1="42.0522" x2="194.192" y2="890.536" gradientUnits="userSpaceOnUse">
<stop stop-color="white"/>
<stop offset="1" stop-color="white" stop-opacity="0"/>
</linearGradient>
<linearGradient id="paint29_linear" x1="194.192" y1="42.0522" x2="194.192" y2="890.536" gradientUnits="userSpaceOnUse">
<stop stop-color="white"/>
<stop offset="1" stop-color="white" stop-opacity="0"/>
</linearGradient>
<linearGradient id="paint30_linear" x1="194.192" y1="42.0522" x2="194.192" y2="890.536" gradientUnits="userSpaceOnUse">
<stop stop-color="white"/>
<stop offset="1" stop-color="white" stop-opacity="0"/>
</linearGradient>
<linearGradient id="paint31_linear" x1="194.192" y1="42.0522" x2="194.192" y2="890.536" gradientUnits="userSpaceOnUse">
<stop stop-color="white"/>
<stop offset="1" stop-color="white" stop-opacity="0"/>
</linearGradient>
<linearGradient id="paint32_linear" x1="194.192" y1="42.0522" x2="194.192" y2="890.536" gradientUnits="userSpaceOnUse">
<stop stop-color="white"/>
<stop offset="1" stop-color="white" stop-opacity="0"/>
</linearGradient>
<linearGradient id="paint33_linear" x1="194.192" y1="42.0522" x2="194.192" y2="890.536" gradientUnits="userSpaceOnUse">
<stop stop-color="white"/>
<stop offset="1" stop-color="white" stop-opacity="0"/>
</linearGradient>
<linearGradient id="paint34_linear" x1="194.192" y1="42.0522" x2="194.192" y2="890.536" gradientUnits="userSpaceOnUse">
<stop stop-color="white"/>
<stop offset="1" stop-color="white" stop-opacity="0"/>
</linearGradient>
<linearGradient id="paint35_linear" x1="194.192" y1="42.0522" x2="194.192" y2="890.536" gradientUnits="userSpaceOnUse">
<stop stop-color="white"/>
<stop offset="1" stop-color="white" stop-opacity="0"/>
</linearGradient>
<linearGradient id="paint36_linear" x1="194.192" y1="42.0522" x2="194.192" y2="890.536" gradientUnits="userSpaceOnUse">
<stop stop-color="white"/>
<stop offset="1" stop-color="white" stop-opacity="0"/>
</linearGradient>
<linearGradient id="paint37_linear" x1="194.192" y1="42.0522" x2="194.192" y2="890.536" gradientUnits="userSpaceOnUse">
<stop stop-color="white"/>
<stop offset="1" stop-color="white" stop-opacity="0"/>
</linearGradient>
<linearGradient id="paint38_linear" x1="194.192" y1="42.0522" x2="194.192" y2="890.536" gradientUnits="userSpaceOnUse">
<stop stop-color="white"/>
<stop offset="1" stop-color="white" stop-opacity="0"/>
</linearGradient>
<linearGradient id="paint39_linear" x1="194.192" y1="42.0522" x2="194.192" y2="890.536" gradientUnits="userSpaceOnUse">
<stop stop-color="white"/>
<stop offset="1" stop-color="white" stop-opacity="0"/>
</linearGradient>
<linearGradient id="paint40_linear" x1="194.192" y1="42.0522" x2="194.192" y2="890.536" gradientUnits="userSpaceOnUse">
<stop stop-color="white"/>
<stop offset="1" stop-color="white" stop-opacity="0"/>
</linearGradient>
<linearGradient id="paint41_linear" x1="194.192" y1="42.0522" x2="194.192" y2="890.536" gradientUnits="userSpaceOnUse">
<stop stop-color="white"/>
<stop offset="1" stop-color="white" stop-opacity="0"/>
</linearGradient>
<linearGradient id="paint42_linear" x1="194.192" y1="42.0522" x2="194.192" y2="890.536" gradientUnits="userSpaceOnUse">
<stop stop-color="white"/>
<stop offset="1" stop-color="white" stop-opacity="0"/>
</linearGradient>
<linearGradient id="paint43_linear" x1="194.192" y1="42.0522" x2="194.192" y2="890.536" gradientUnits="userSpaceOnUse">
<stop stop-color="white"/>
<stop offset="1" stop-color="white" stop-opacity="0"/>
</linearGradient>
<linearGradient id="paint44_linear" x1="194.192" y1="42.0522" x2="194.192" y2="890.536" gradientUnits="userSpaceOnUse">
<stop stop-color="white"/>
<stop offset="1" stop-color="white" stop-opacity="0"/>
</linearGradient>
<linearGradient id="paint45_linear" x1="194.192" y1="42.0522" x2="194.192" y2="890.536" gradientUnits="userSpaceOnUse">
<stop stop-color="white"/>
<stop offset="1" stop-color="white" stop-opacity="0"/>
</linearGradient>
<linearGradient id="paint46_linear" x1="194.192" y1="42.0522" x2="194.192" y2="890.536" gradientUnits="userSpaceOnUse">
<stop stop-color="white"/>
<stop offset="1" stop-color="white" stop-opacity="0"/>
</linearGradient>
<linearGradient id="paint47_linear" x1="194.192" y1="42.0522" x2="194.192" y2="890.536" gradientUnits="userSpaceOnUse">
<stop stop-color="white"/>
<stop offset="1" stop-color="white" stop-opacity="0"/>
</linearGradient>
<linearGradient id="paint48_linear" x1="194.192" y1="42.0522" x2="194.192" y2="890.536" gradientUnits="userSpaceOnUse">
<stop stop-color="white"/>
<stop offset="1" stop-color="white" stop-opacity="0"/>
</linearGradient>
<linearGradient id="paint49_linear" x1="194.192" y1="42.0522" x2="194.192" y2="890.536" gradientUnits="userSpaceOnUse">
<stop stop-color="white"/>
<stop offset="1" stop-color="white" stop-opacity="0"/>
</linearGradient>
<linearGradient id="paint50_linear" x1="194.192" y1="42.0522" x2="194.192" y2="890.536" gradientUnits="userSpaceOnUse">
<stop stop-color="white"/>
<stop offset="1" stop-color="white" stop-opacity="0"/>
</linearGradient>
<linearGradient id="paint51_linear" x1="194.192" y1="42.0522" x2="194.192" y2="890.536" gradientUnits="userSpaceOnUse">
<stop stop-color="white"/>
<stop offset="1" stop-color="white" stop-opacity="0"/>
</linearGradient>
<linearGradient id="paint52_linear" x1="194.192" y1="42.0522" x2="194.192" y2="890.536" gradientUnits="userSpaceOnUse">
<stop stop-color="white"/>
<stop offset="1" stop-color="white" stop-opacity="0"/>
</linearGradient>
<linearGradient id="paint53_linear" x1="194.192" y1="42.0522" x2="194.192" y2="890.536" gradientUnits="userSpaceOnUse">
<stop stop-color="white"/>
<stop offset="1" stop-color="white" stop-opacity="0"/>
</linearGradient>
<linearGradient id="paint54_linear" x1="194.192" y1="42.0522" x2="194.192" y2="890.536" gradientUnits="userSpaceOnUse">
<stop stop-color="white"/>
<stop offset="1" stop-color="white" stop-opacity="0"/>
</linearGradient>
<linearGradient id="paint55_linear" x1="194.192" y1="42.0522" x2="194.192" y2="890.536" gradientUnits="userSpaceOnUse">
<stop stop-color="white"/>
<stop offset="1" stop-color="white" stop-opacity="0"/>
</linearGradient>
<linearGradient id="paint56_linear" x1="194.192" y1="42.0522" x2="194.192" y2="890.536" gradientUnits="userSpaceOnUse">
<stop stop-color="white"/>
<stop offset="1" stop-color="white" stop-opacity="0"/>
</linearGradient>
<linearGradient id="paint57_linear" x1="194.192" y1="42.0522" x2="194.192" y2="890.536" gradientUnits="userSpaceOnUse">
<stop stop-color="white"/>
<stop offset="1" stop-color="white" stop-opacity="0"/>
</linearGradient>
<linearGradient id="paint58_linear" x1="194.192" y1="42.0522" x2="194.192" y2="890.536" gradientUnits="userSpaceOnUse">
<stop stop-color="white"/>
<stop offset="1" stop-color="white" stop-opacity="0"/>
</linearGradient>
<linearGradient id="paint59_linear" x1="194.192" y1="42.0522" x2="194.192" y2="890.536" gradientUnits="userSpaceOnUse">
<stop stop-color="white"/>
<stop offset="1" stop-color="white" stop-opacity="0"/>
</linearGradient>
<linearGradient id="paint60_linear" x1="194.192" y1="42.0522" x2="194.192" y2="890.536" gradientUnits="userSpaceOnUse">
<stop stop-color="white"/>
<stop offset="1" stop-color="white" stop-opacity="0"/>
</linearGradient>
<linearGradient id="paint61_linear" x1="194.192" y1="42.0522" x2="194.192" y2="890.536" gradientUnits="userSpaceOnUse">
<stop stop-color="white"/>
<stop offset="1" stop-color="white" stop-opacity="0"/>
</linearGradient>
<linearGradient id="paint62_linear" x1="194.192" y1="42.0522" x2="194.192" y2="890.536" gradientUnits="userSpaceOnUse">
<stop stop-color="white"/>
<stop offset="1" stop-color="white" stop-opacity="0"/>
</linearGradient>
<linearGradient id="paint63_linear" x1="194.192" y1="42.0522" x2="194.192" y2="890.536" gradientUnits="userSpaceOnUse">
<stop stop-color="white"/>
<stop offset="1" stop-color="white" stop-opacity="0"/>
</linearGradient>
<linearGradient id="paint64_linear" x1="194.192" y1="42.0522" x2="194.192" y2="890.536" gradientUnits="userSpaceOnUse">
<stop stop-color="white"/>
<stop offset="1" stop-color="white" stop-opacity="0"/>
</linearGradient>
<linearGradient id="paint65_linear" x1="194.192" y1="42.0522" x2="194.192" y2="890.536" gradientUnits="userSpaceOnUse">
<stop stop-color="white"/>
<stop offset="1" stop-color="white" stop-opacity="0"/>
</linearGradient>
<linearGradient id="paint66_linear" x1="194.192" y1="42.0522" x2="194.192" y2="890.536" gradientUnits="userSpaceOnUse">
<stop stop-color="white"/>
<stop offset="1" stop-color="white" stop-opacity="0"/>
</linearGradient>
<linearGradient id="paint67_linear" x1="194.192" y1="42.0522" x2="194.192" y2="890.536" gradientUnits="userSpaceOnUse">
<stop stop-color="white"/>
<stop offset="1" stop-color="white" stop-opacity="0"/>
</linearGradient>
<linearGradient id="paint68_linear" x1="194.192" y1="42.0522" x2="194.192" y2="890.536" gradientUnits="userSpaceOnUse">
<stop stop-color="white"/>
<stop offset="1" stop-color="white" stop-opacity="0"/>
</linearGradient>
<linearGradient id="paint69_linear" x1="194.192" y1="42.0522" x2="194.192" y2="890.536" gradientUnits="userSpaceOnUse">
<stop stop-color="white"/>
<stop offset="1" stop-color="white" stop-opacity="0"/>
</linearGradient>
<linearGradient id="paint70_linear" x1="194.192" y1="42.0522" x2="194.192" y2="890.536" gradientUnits="userSpaceOnUse">
<stop stop-color="white"/>
<stop offset="1" stop-color="white" stop-opacity="0"/>
</linearGradient>
<linearGradient id="paint71_linear" x1="194.192" y1="42.0522" x2="194.192" y2="890.536" gradientUnits="userSpaceOnUse">
<stop stop-color="white"/>
<stop offset="1" stop-color="white" stop-opacity="0"/>
</linearGradient>
<linearGradient id="paint72_linear" x1="194.192" y1="42.0522" x2="194.192" y2="890.536" gradientUnits="userSpaceOnUse">
<stop stop-color="white"/>
<stop offset="1" stop-color="white" stop-opacity="0"/>
</linearGradient>
<linearGradient id="paint73_linear" x1="194.192" y1="42.0522" x2="194.192" y2="890.536" gradientUnits="userSpaceOnUse">
<stop stop-color="white"/>
<stop offset="1" stop-color="white" stop-opacity="0"/>
</linearGradient>
<linearGradient id="paint74_linear" x1="194.192" y1="42.0522" x2="194.192" y2="890.536" gradientUnits="userSpaceOnUse">
<stop stop-color="white"/>
<stop offset="1" stop-color="white" stop-opacity="0"/>
</linearGradient>
<linearGradient id="paint75_linear" x1="194.192" y1="42.0522" x2="194.192" y2="890.536" gradientUnits="userSpaceOnUse">
<stop stop-color="white"/>
<stop offset="1" stop-color="white" stop-opacity="0"/>
</linearGradient>
<linearGradient id="paint76_linear" x1="194.192" y1="42.0522" x2="194.192" y2="890.536" gradientUnits="userSpaceOnUse">
<stop stop-color="white"/>
<stop offset="1" stop-color="white" stop-opacity="0"/>
</linearGradient>
<linearGradient id="paint77_linear" x1="194.192" y1="42.0522" x2="194.192" y2="890.536" gradientUnits="userSpaceOnUse">
<stop stop-color="white"/>
<stop offset="1" stop-color="white" stop-opacity="0"/>
</linearGradient>
<linearGradient id="paint78_linear" x1="194.192" y1="42.0522" x2="194.192" y2="890.536" gradientUnits="userSpaceOnUse">
<stop stop-color="white"/>
<stop offset="1" stop-color="white" stop-opacity="0"/>
</linearGradient>
<linearGradient id="paint79_linear" x1="194.192" y1="42.0522" x2="194.192" y2="890.536" gradientUnits="userSpaceOnUse">
<stop stop-color="white"/>
<stop offset="1" stop-color="white" stop-opacity="0"/>
</linearGradient>
<linearGradient id="paint80_linear" x1="194.192" y1="42.0522" x2="194.192" y2="890.536" gradientUnits="userSpaceOnUse">
<stop stop-color="white"/>
<stop offset="1" stop-color="white" stop-opacity="0"/>
</linearGradient>
<linearGradient id="paint81_linear" x1="194.192" y1="42.0522" x2="194.192" y2="890.536" gradientUnits="userSpaceOnUse">
<stop stop-color="white"/>
<stop offset="1" stop-color="white" stop-opacity="0"/>
</linearGradient>
<linearGradient id="paint82_linear" x1="194.192" y1="42.0522" x2="194.192" y2="890.536" gradientUnits="userSpaceOnUse">
<stop stop-color="white"/>
<stop offset="1" stop-color="white" stop-opacity="0"/>
</linearGradient>
<linearGradient id="paint83_linear" x1="194.192" y1="42.0522" x2="194.192" y2="890.536" gradientUnits="userSpaceOnUse">
<stop stop-color="white"/>
<stop offset="1" stop-color="white" stop-opacity="0"/>
</linearGradient>
<linearGradient id="paint84_linear" x1="194.192" y1="42.0522" x2="194.192" y2="890.536" gradientUnits="userSpaceOnUse">
<stop stop-color="white"/>
<stop offset="1" stop-color="white" stop-opacity="0"/>
</linearGradient>
</defs>
</svg>
